{"asset":{"generator":"3D Builder","version":"2.0"},"scene":0,"scenes":[{"nodes":[0]}],"nodes":[{"mesh":0,"matrix":[1,0,0,0,0,-1.1920928955078125E-7,-0.99999988079071045,0,0,0.99999988079071045,-1.1920928955078125E-7,0,-1.3020039091315994E-7,1.6659042501032673E-7,1.0082958397106268E-6,1]}],"meshes":[{"primitives":[{"attributes":{"POSITION":0},"mode":4,"indices":1,"material":0}]}],"materials":[{"name":"Turquoise_1_0","pbrMetallicRoughness":{"baseColorFactor":[0,0.3515326976776123,0.80695235729217529,1],"metallicFactor":0,"roughnessFactor":0.498039186000824},"alphaMode":"OPAQUE"}],"accessors":[{"bufferView":0,"byteOffset":0,"count":1840,"componentType":5126,"type":"VEC3","min":[-0.051248993724584579,0.0022163661196827888,-1.6659032553434372E-7],"max":[-0.033526983112096786,0.027356363832950592,0.00536795798689127]},{"bufferView":1,"byteOffset":0,"count":11046,"componentType":5125,"type":"SCALAR"}],"bufferViews":[{"buffer":0,"byteOffset":0,"byteLength":22080,"byteStride":12,"target":34962},{"buffer":0,"byteOffset":22080,"byteLength":44184,"target":34963}],"buffers":[{"byteLength":66264,"uri":"0.bin"}]}