{"asset":{"generator":"3D Builder","version":"2.0"},"scene":0,"scenes":[{"nodes":[0]}],"nodes":[{"children":[1,2]},{"mesh":0,"matrix":[1.0000004768371582,0,0,0,0,-1.1920934639420011E-7,-1.0000003576278687,0,0,1.0000003576278687,-1.1920934639420011E-7,0,0,0,0,1]},{"mesh":1,"matrix":[1.0000004768371582,0,0,0,0,-1.1920934639420011E-7,-1.0000003576278687,0,0,1.0000003576278687,-1.1920934639420011E-7,0,0,0,0,1]}],"meshes":[{"primitives":[{"attributes":{"POSITION":0,"COLOR_0":1},"mode":4,"indices":2}]},{"primitives":[{"attributes":{"POSITION":3,"COLOR_0":4},"mode":4,"indices":5}]}],"accessors":[{"bufferView":0,"byteOffset":0,"count":972,"componentType":5126,"type":"VEC3","min":[-0.017000000923871994,-0.021774999797344208,0],"max":[0.017000000923871994,0.021774999797344208,0.0070000002160668373]},{"bufferView":1,"byteOffset":0,"count":972,"componentType":5121,"type":"VEC4","normalized":true},{"bufferView":2,"byteOffset":0,"count":5832,"componentType":5125,"type":"SCALAR"},{"bufferView":3,"byteOffset":0,"count":2540,"componentType":5126,"type":"VEC3","min":[-0.024000000208616257,-0.023975800722837448,0],"max":[0.024000000208616257,0.023975800722837448,0.0084979897364974022]},{"bufferView":4,"byteOffset":0,"count":2540,"componentType":5121,"type":"VEC4","normalized":true},{"bufferView":5,"byteOffset":0,"count":15240,"componentType":5125,"type":"SCALAR"}],"bufferViews":[{"buffer":0,"byteOffset":0,"byteLength":11664,"byteStride":12,"target":34962},{"buffer":0,"byteOffset":11664,"byteLength":3888,"byteStride":4,"target":34962},{"buffer":0,"byteOffset":15552,"byteLength":23328,"target":34963},{"buffer":0,"byteOffset":38880,"byteLength":30480,"byteStride":12,"target":34962},{"buffer":0,"byteOffset":69360,"byteLength":10160,"byteStride":4,"target":34962},{"buffer":0,"byteOffset":79520,"byteLength":60960,"target":34963}],"buffers":[{"byteLength":140480,"uri":"001_-_H_-_Hydrogen.bin"}]}