{"asset":{"generator":"3D Builder","version":"2.0"},"scene":0,"scenes":[{"nodes":[0]}],"nodes":[{"children":[1,2,3]},{"mesh":0,"matrix":[0.039370074868202209,0,0,0,0,-4.6932786545994531E-9,-0.039370071142911911,0,0,0.039370071142911911,-4.6932786545994531E-9,0,0,0,0,1]},{"mesh":1,"matrix":[0.039370074868202209,0,0,0,0,-4.6932786545994531E-9,-0.039370071142911911,0,0,0.039370071142911911,-4.6932786545994531E-9,0,0,0,0,1]},{"mesh":2,"matrix":[0.039370074868202209,0,0,0,0,-4.6932786545994531E-9,-0.039370071142911911,0,0,0.039370071142911911,-4.6932786545994531E-9,0,0,0,0,1]}],"meshes":[{"primitives":[{"attributes":{"POSITION":0,"COLOR_0":1},"mode":4,"indices":2}]},{"primitives":[{"attributes":{"POSITION":3,"COLOR_0":4},"mode":4,"indices":5}]},{"primitives":[{"attributes":{"POSITION":6,"COLOR_0":7},"mode":4,"indices":8}]}],"accessors":[{"bufferView":0,"byteOffset":0,"count":1122,"componentType":5126,"type":"VEC3","min":[-0.43185076117515564,-0.55313068628311157,0],"max":[0.43180009722709656,0.55309009552001953,0.17779999971389771]},{"bufferView":1,"byteOffset":0,"count":1122,"componentType":5121,"type":"VEC4","normalized":true},{"bufferView":2,"byteOffset":0,"count":6732,"componentType":5125,"type":"SCALAR"},{"bufferView":3,"byteOffset":0,"count":4145,"componentType":5126,"type":"VEC3","min":[-0.73091030120849609,-0.60901069641113281,0],"max":[0.73085957765579224,0.60897016525268555,0.21579840779304504]},{"bufferView":4,"byteOffset":0,"count":4145,"componentType":5121,"type":"VEC4","normalized":true},{"bufferView":5,"byteOffset":0,"count":24894,"componentType":5125,"type":"SCALAR"},{"bufferView":6,"byteOffset":0,"count":6334,"componentType":5126,"type":"VEC3","min":[-0.78739994764328,-0.78660738468170166,0],"max":[0.78734922409057617,0.786566972732544,0.22854919731616974]},{"bufferView":7,"byteOffset":0,"count":6334,"componentType":5121,"type":"VEC4","normalized":true},{"bufferView":8,"byteOffset":0,"count":38004,"componentType":5125,"type":"SCALAR"}],"bufferViews":[{"buffer":0,"byteOffset":0,"byteLength":13464,"byteStride":12,"target":34962},{"buffer":0,"byteOffset":13464,"byteLength":4488,"byteStride":4,"target":34962},{"buffer":0,"byteOffset":17952,"byteLength":26928,"target":34963},{"buffer":0,"byteOffset":44880,"byteLength":49740,"byteStride":12,"target":34962},{"buffer":0,"byteOffset":94620,"byteLength":16580,"byteStride":4,"target":34962},{"buffer":0,"byteOffset":111200,"byteLength":99576,"target":34963},{"buffer":0,"byteOffset":210776,"byteLength":76008,"byteStride":12,"target":34962},{"buffer":0,"byteOffset":286784,"byteLength":25336,"byteStride":4,"target":34962},{"buffer":0,"byteOffset":312120,"byteLength":152016,"target":34963}],"buffers":[{"byteLength":464136,"uri":"006_-_C_-_Carbon.bin"}]}