{"asset":{"generator":"3D Builder","version":"2.0"},"scene":0,"scenes":[{"nodes":[0]}],"nodes":[{"children":[1,2,3]},{"mesh":0,"matrix":[0.03937000036239624,0,0,0,0,-4.6932697728152561E-9,-0.039369996637105942,0,0,0.039369996637105942,-4.6932697728152561E-9,0,0,0,0,1]},{"mesh":1,"matrix":[0.03937000036239624,0,0,0,0,-4.6932697728152561E-9,-0.039369996637105942,0,0,0.039369996637105942,-4.6932697728152561E-9,0,0,0,0,1]},{"mesh":2,"matrix":[0.03937000036239624,0,0,0,0,-4.6932697728152561E-9,-0.039369996637105942,0,0,0.039369996637105942,-4.6932697728152561E-9,0,0,0,0,1]}],"meshes":[{"primitives":[{"attributes":{"POSITION":0,"COLOR_0":1},"mode":4,"indices":2}]},{"primitives":[{"attributes":{"POSITION":3,"COLOR_0":4},"mode":4,"indices":5}]},{"primitives":[{"attributes":{"POSITION":6,"COLOR_0":7},"mode":4,"indices":8}]}],"accessors":[{"bufferView":0,"byteOffset":0,"count":1050,"componentType":5126,"type":"VEC3","min":[-0.43185102939605713,-0.55313098430633545,0],"max":[0.43180000782012939,0.55309003591537476,0.1778000146150589]},{"bufferView":1,"byteOffset":0,"count":1050,"componentType":5121,"type":"VEC4","normalized":true},{"bufferView":2,"byteOffset":0,"count":6300,"componentType":5125,"type":"SCALAR"},{"bufferView":3,"byteOffset":0,"count":4145,"componentType":5126,"type":"VEC3","min":[-0.73091000318527222,-0.60901099443435669,0],"max":[0.73085999488830566,0.60896998643875122,0.215798020362854]},{"bufferView":4,"byteOffset":0,"count":4145,"componentType":5121,"type":"VEC4","normalized":true},{"bufferView":5,"byteOffset":0,"count":24894,"componentType":5125,"type":"SCALAR"},{"bufferView":6,"byteOffset":0,"count":7587,"componentType":5126,"type":"VEC3","min":[-0.78740006685256958,-0.786607027053833,0],"max":[0.78734904527664185,0.78656703233718872,0.22854900360107422]},{"bufferView":7,"byteOffset":0,"count":7587,"componentType":5121,"type":"VEC4","normalized":true},{"bufferView":8,"byteOffset":0,"count":45522,"componentType":5125,"type":"SCALAR"}],"bufferViews":[{"buffer":0,"byteOffset":0,"byteLength":12600,"byteStride":12,"target":34962},{"buffer":0,"byteOffset":12600,"byteLength":4200,"byteStride":4,"target":34962},{"buffer":0,"byteOffset":16800,"byteLength":25200,"target":34963},{"buffer":0,"byteOffset":42000,"byteLength":49740,"byteStride":12,"target":34962},{"buffer":0,"byteOffset":91740,"byteLength":16580,"byteStride":4,"target":34962},{"buffer":0,"byteOffset":108320,"byteLength":99576,"target":34963},{"buffer":0,"byteOffset":207896,"byteLength":91044,"byteStride":12,"target":34962},{"buffer":0,"byteOffset":298940,"byteLength":30348,"byteStride":4,"target":34962},{"buffer":0,"byteOffset":329288,"byteLength":182088,"target":34963}],"buffers":[{"byteLength":511376,"uri":"007_-_N_-_Nitrogen.bin"}]}