{"asset":{"generator":"3D Builder","version":"2.0"},"scene":0,"scenes":[{"nodes":[0,1,2,3,4,5,6,7,8,9]}],"nodes":[{"mesh":0,"matrix":[1,0,0,0,0,-1.1920928955078125E-7,-0.99999988079071045,0,0,0.99999988079071045,-1.1920928955078125E-7,0,-1.3020039091315994E-7,1.6659042501032673E-7,1.0082958397106268E-6,1]},{"mesh":1,"matrix":[1,0,0,0,0,-1.1920928955078125E-7,-0.99999988079071045,0,0,0.99999988079071045,-1.1920928955078125E-7,0,-1.3020039091315994E-7,1.6659042501032673E-7,1.0082958397106268E-6,1]},{"mesh":2,"matrix":[1,0,0,0,0,-1.1920928955078125E-7,-0.99999988079071045,0,0,0.99999988079071045,-1.1920928955078125E-7,0,-1.3020039091315994E-7,1.6659042501032673E-7,1.0082958397106268E-6,1]},{"mesh":3,"matrix":[1,0,0,0,0,-1.1920928955078125E-7,-0.99999988079071045,0,0,0.99999988079071045,-1.1920928955078125E-7,0,-1.3020039091315994E-7,1.6659042501032673E-7,1.0082958397106268E-6,1]},{"mesh":4,"matrix":[1,0,0,0,0,-1.1920928955078125E-7,-0.99999988079071045,0,0,0.99999988079071045,-1.1920928955078125E-7,0,-1.3020039091315994E-7,1.6659042501032673E-7,1.0082958397106268E-6,1]},{"mesh":5,"matrix":[1,0,0,0,0,-1.1920928955078125E-7,-0.99999988079071045,0,0,0.99999988079071045,-1.1920928955078125E-7,0,-1.3020039091315994E-7,1.6659042501032673E-7,1.0082958397106268E-6,1]},{"mesh":6,"matrix":[1,0,0,0,0,-1.1920928955078125E-7,-0.99999988079071045,0,0,0.99999988079071045,-1.1920928955078125E-7,0,-1.3020039091315994E-7,1.6659042501032673E-7,1.0082958397106268E-6,1]},{"mesh":7,"matrix":[1,0,0,0,0,-1.1920928955078125E-7,-0.99999988079071045,0,0,0.99999988079071045,-1.1920928955078125E-7,0,-1.3020039091315994E-7,1.6659042501032673E-7,1.0082958397106268E-6,1]},{"mesh":8,"matrix":[1,0,0,0,0,-1.1920928955078125E-7,-0.99999988079071045,0,0,0.99999988079071045,-1.1920928955078125E-7,0,-1.3020039091315994E-7,1.6659042501032673E-7,1.0082958397106268E-6,1]},{"mesh":9,"matrix":[1,0,0,0,0,-1.1920928955078125E-7,-0.99999988079071045,0,0,0.99999988079071045,-1.1920928955078125E-7,0,-1.3020039091315994E-7,1.6659042501032673E-7,1.0082958397106268E-6,1]}],"meshes":[{"primitives":[{"attributes":{"POSITION":0},"mode":4,"indices":1,"material":0}]},{"primitives":[{"attributes":{"POSITION":2},"mode":4,"indices":3,"material":1}]},{"primitives":[{"attributes":{"POSITION":4},"mode":4,"indices":5,"material":1}]},{"primitives":[{"attributes":{"POSITION":6},"mode":4,"indices":7,"material":1}]},{"primitives":[{"attributes":{"POSITION":8},"mode":4,"indices":9,"material":1}]},{"primitives":[{"attributes":{"POSITION":10},"mode":4,"indices":11,"material":1}]},{"primitives":[{"attributes":{"POSITION":12},"mode":4,"indices":13,"material":0}]},{"primitives":[{"attributes":{"POSITION":14},"mode":4,"indices":15,"material":0}]},{"primitives":[{"attributes":{"POSITION":16},"mode":4,"indices":17,"material":0}]},{"primitives":[{"attributes":{"POSITION":18},"mode":4,"indices":19,"material":0}]}],"materials":[{"name":"Green_1_1","pbrMetallicRoughness":{"baseColorFactor":[0.015208514407277107,0.49693304300308228,0.072271861135959625,1],"metallicFactor":0,"roughnessFactor":0.498039186000824},"alphaMode":"OPAQUE"},{"name":"Turquoise_1_0","pbrMetallicRoughness":{"baseColorFactor":[0,0.3515326976776123,0.80695235729217529,1],"metallicFactor":0,"roughnessFactor":0.498039186000824},"alphaMode":"OPAQUE"}],"accessors":[{"bufferView":0,"byteOffset":0,"count":2581,"componentType":5126,"type":"VEC3","min":[0.011107524856925011,-0.027276681736111641,1.8019345588982105E-6],"max":[0.028409518301486969,-0.0027786828577518463,0.0053219273686409]},{"bufferView":1,"byteOffset":0,"count":15498,"componentType":5125,"type":"SCALAR"},{"bufferView":2,"byteOffset":0,"count":1840,"componentType":5126,"type":"VEC3","min":[-0.051249004900455475,0.0022163661196827888,-1.6659032553434372E-7],"max":[-0.033526983112096786,0.02735636942088604,0.00536795798689127]},{"bufferView":3,"byteOffset":0,"count":11046,"componentType":5125,"type":"SCALAR"},{"bufferView":4,"byteOffset":0,"count":406,"componentType":5126,"type":"VEC3","min":[-0.02932894229888916,0.0024645964149385691,1.4571705833077431E-6],"max":[-0.013532593846321106,0.02710874006152153,0.0053215576335787773]},{"bufferView":5,"byteOffset":0,"count":2424,"componentType":5125,"type":"SCALAR"},{"bufferView":6,"byteOffset":0,"count":841,"componentType":5126,"type":"VEC3","min":[-0.00916315522044897,0.0025418936274945736,9.02859028428793E-7],"max":[0.0076369047164916992,0.027030019089579582,0.0053210379555821419]},{"bufferView":7,"byteOffset":0,"count":5034,"componentType":5125,"type":"SCALAR"},{"bufferView":8,"byteOffset":0,"count":1857,"componentType":5126,"type":"VEC3","min":[0.011363238096237183,0.0025563479866832495,1.7276033759117126E-7],"max":[0.028153255581855774,0.027016350999474525,0.0053202873095870018]},{"bufferView":9,"byteOffset":0,"count":11130,"componentType":5125,"type":"SCALAR"},{"bufferView":10,"byteOffset":0,"count":397,"componentType":5126,"type":"VEC3","min":[0.031651206314563751,0.0025367015041410923,9.274226613342762E-7],"max":[0.051249265670776367,0.027036763727664948,0.00532106775790453]},{"bufferView":11,"byteOffset":0,"count":2382,"componentType":5125,"type":"SCALAR"},{"bufferView":12,"byteOffset":0,"count":1451,"componentType":5126,"type":"VEC3","min":[-0.05083925649523735,-0.027310594916343689,9.4994902610778809E-7],"max":[-0.033935345709323883,-0.0027464833110570908,0.005411065649241209]},{"bufferView":13,"byteOffset":0,"count":8694,"componentType":5125,"type":"SCALAR"},{"bufferView":14,"byteOffset":0,"count":1966,"componentType":5126,"type":"VEC3","min":[-0.030132981017231941,-0.027322279289364815,3.3964170143008232E-7],"max":[-0.012726942077279091,-0.002734258770942688,0.0053204544819891453]},{"bufferView":15,"byteOffset":0,"count":11796,"componentType":5125,"type":"SCALAR"},{"bufferView":16,"byteOffset":0,"count":310,"componentType":5126,"type":"VEC3","min":[-0.0098628997802734375,-0.0272790789604187,1.167005393654108E-6],"max":[0.008337157778441906,-0.0027788653969764709,0.0053213005885481834]},{"bufferView":17,"byteOffset":0,"count":1848,"componentType":5125,"type":"SCALAR"},{"bufferView":18,"byteOffset":0,"count":2052,"componentType":5126,"type":"VEC3","min":[0.0322595089673996,-0.027354352176189423,8.0501195043325424E-8],"max":[0.0496455542743206,-0.0027003064751625061,0.00532218674197793]},{"bufferView":19,"byteOffset":0,"count":12324,"componentType":5125,"type":"SCALAR"}],"bufferViews":[{"buffer":0,"byteOffset":0,"byteLength":30972,"byteStride":12,"target":34962},{"buffer":0,"byteOffset":30972,"byteLength":61992,"target":34963},{"buffer":0,"byteOffset":92964,"byteLength":22080,"byteStride":12,"target":34962},{"buffer":0,"byteOffset":115044,"byteLength":44184,"target":34963},{"buffer":0,"byteOffset":159228,"byteLength":4872,"byteStride":12,"target":34962},{"buffer":0,"byteOffset":164100,"byteLength":9696,"target":34963},{"buffer":0,"byteOffset":173796,"byteLength":10092,"byteStride":12,"target":34962},{"buffer":0,"byteOffset":183888,"byteLength":20136,"target":34963},{"buffer":0,"byteOffset":204024,"byteLength":22284,"byteStride":12,"target":34962},{"buffer":0,"byteOffset":226308,"byteLength":44520,"target":34963},{"buffer":0,"byteOffset":270828,"byteLength":4764,"byteStride":12,"target":34962},{"buffer":0,"byteOffset":275592,"byteLength":9528,"target":34963},{"buffer":0,"byteOffset":285120,"byteLength":17412,"byteStride":12,"target":34962},{"buffer":0,"byteOffset":302532,"byteLength":34776,"target":34963},{"buffer":0,"byteOffset":337308,"byteLength":23592,"byteStride":12,"target":34962},{"buffer":0,"byteOffset":360900,"byteLength":47184,"target":34963},{"buffer":0,"byteOffset":408084,"byteLength":3720,"byteStride":12,"target":34962},{"buffer":0,"byteOffset":411804,"byteLength":7392,"target":34963},{"buffer":0,"byteOffset":419196,"byteLength":24624,"byteStride":12,"target":34962},{"buffer":0,"byteOffset":443820,"byteLength":49296,"target":34963}],"buffers":[{"byteLength":493116,"uri":"0123456789.bin"}]}