{"asset":{"generator":"3D Builder","version":"2.0"},"scene":0,"scenes":[{"nodes":[0]}],"nodes":[{"children":[1,2,3,4]},{"mesh":0,"matrix":[0.03937000036239624,0,0,0,0,-4.6932697728152561E-9,-0.039369996637105942,0,0,0.039369996637105942,-4.6932697728152561E-9,0,0,0,0,1]},{"mesh":1,"matrix":[0.03937000036239624,0,0,0,0,-4.6932697728152561E-9,-0.039369996637105942,0,0,0.039369996637105942,-4.6932697728152561E-9,0,0,0,0,1]},{"mesh":2,"matrix":[0.03937000036239624,0,0,0,0,-4.6932697728152561E-9,-0.039369996637105942,0,0,0.039369996637105942,-4.6932697728152561E-9,0,0,0,0,1]},{"mesh":3,"matrix":[0.03937000036239624,0,0,0,0,-4.6932697728152561E-9,-0.039369996637105942,0,0,0.039369996637105942,-4.6932697728152561E-9,0,0,0,0,1]}],"meshes":[{"primitives":[{"attributes":{"POSITION":0,"COLOR_0":1},"mode":4,"indices":2}]},{"primitives":[{"attributes":{"POSITION":3,"COLOR_0":4},"mode":4,"indices":5}]},{"primitives":[{"attributes":{"POSITION":6,"COLOR_0":7},"mode":4,"indices":8}]},{"primitives":[{"attributes":{"POSITION":9,"COLOR_0":10},"mode":4,"indices":11}]}],"accessors":[{"bufferView":0,"byteOffset":0,"count":1156,"componentType":5126,"type":"VEC3","min":[-0.43185102939605713,-0.55310302972793579,0],"max":[0.43174901604652405,0.55306702852249146,0.1778000146150589]},{"bufferView":1,"byteOffset":0,"count":1156,"componentType":5121,"type":"VEC4","normalized":true},{"bufferView":2,"byteOffset":0,"count":6936,"componentType":5125,"type":"SCALAR"},{"bufferView":3,"byteOffset":0,"count":3801,"componentType":5126,"type":"VEC3","min":[-0.96520006656646729,-0.964227020740509,0],"max":[0.96514904499053955,0.96419203281402588,0.24119800329208374]},{"bufferView":4,"byteOffset":0,"count":3801,"componentType":5121,"type":"VEC4","normalized":true},{"bufferView":5,"byteOffset":0,"count":22806,"componentType":5125,"type":"SCALAR"},{"bufferView":6,"byteOffset":0,"count":11669,"componentType":5126,"type":"VEC3","min":[-0.78740006685256958,-0.9087030291557312,0],"max":[0.78740006685256958,0.90866702795028687,0.22849801182746887]},{"bufferView":7,"byteOffset":0,"count":11669,"componentType":5121,"type":"VEC4","normalized":true},{"bufferView":8,"byteOffset":0,"count":70038,"componentType":5125,"type":"SCALAR"},{"bufferView":9,"byteOffset":0,"count":4138,"componentType":5126,"type":"VEC3","min":[-0.73091000318527222,-0.60898298025131226,0],"max":[0.73085999488830566,0.6089470386505127,0.21584901213645935]},{"bufferView":10,"byteOffset":0,"count":4138,"componentType":5121,"type":"VEC4","normalized":true},{"bufferView":11,"byteOffset":0,"count":24858,"componentType":5125,"type":"SCALAR"}],"bufferViews":[{"buffer":0,"byteOffset":0,"byteLength":13872,"byteStride":12,"target":34962},{"buffer":0,"byteOffset":13872,"byteLength":4624,"byteStride":4,"target":34962},{"buffer":0,"byteOffset":18496,"byteLength":27744,"target":34963},{"buffer":0,"byteOffset":46240,"byteLength":45612,"byteStride":12,"target":34962},{"buffer":0,"byteOffset":91852,"byteLength":15204,"byteStride":4,"target":34962},{"buffer":0,"byteOffset":107056,"byteLength":91224,"target":34963},{"buffer":0,"byteOffset":198280,"byteLength":140028,"byteStride":12,"target":34962},{"buffer":0,"byteOffset":338308,"byteLength":46676,"byteStride":4,"target":34962},{"buffer":0,"byteOffset":384984,"byteLength":280152,"target":34963},{"buffer":0,"byteOffset":665136,"byteLength":49656,"byteStride":12,"target":34962},{"buffer":0,"byteOffset":714792,"byteLength":16552,"byteStride":4,"target":34962},{"buffer":0,"byteOffset":731344,"byteLength":99432,"target":34963}],"buffers":[{"byteLength":830776,"uri":"012_-_Mg_-_Magnesium.bin"}]}