{"asset":{"generator":"3D Builder","version":"2.0"},"scene":0,"scenes":[{"nodes":[0,1,2,3]}],"nodes":[{"mesh":0,"matrix":[1,0,0,0,0,-1.1920928955078125E-7,-0.99999988079071045,0,0,0.99999988079071045,-1.1920928955078125E-7,0,1.0037541642304859E-6,-8.1936946106069691E-14,-6.873368647575262E-7,1]},{"mesh":1,"matrix":[1,0,0,0,0,-1.1920928955078125E-7,-0.99999988079071045,0,0,0.99999988079071045,-1.1920928955078125E-7,0,1.0037541642304859E-6,-8.1936946106069691E-14,-6.873368647575262E-7,1]},{"mesh":2,"matrix":[1,0,0,0,0,-1.1920928955078125E-7,-0.99999988079071045,0,0,0.99999988079071045,-1.1920928955078125E-7,0,1.0037541642304859E-6,-8.1936946106069691E-14,-6.873368647575262E-7,1]},{"mesh":3,"matrix":[1,0,0,0,0,-1.1920928955078125E-7,-0.99999988079071045,0,0,0.99999988079071045,-1.1920928955078125E-7,0,1.0037541642304859E-6,-8.1936946106069691E-14,-6.873368647575262E-7,1]}],"meshes":[{"primitives":[{"attributes":{"POSITION":0,"COLOR_0":1},"mode":4,"indices":2}]},{"primitives":[{"attributes":{"POSITION":3,"COLOR_0":4},"mode":4,"indices":5}]},{"primitives":[{"attributes":{"POSITION":6,"COLOR_0":7},"mode":4,"indices":8}]},{"primitives":[{"attributes":{"POSITION":9,"COLOR_0":10},"mode":4,"indices":11}]}],"accessors":[{"bufferView":0,"byteOffset":0,"count":1154,"componentType":5126,"type":"VEC3","min":[-0.017001975327730179,-0.021775661036372185,0],"max":[0.016997959464788437,0.02177424356341362,0.0069999834522604942]},{"bufferView":1,"byteOffset":0,"count":1154,"componentType":5121,"type":"VEC4","normalized":true},{"bufferView":2,"byteOffset":0,"count":6924,"componentType":5125,"type":"SCALAR"},{"bufferView":3,"byteOffset":0,"count":8841,"componentType":5126,"type":"VEC3","min":[-0.037999927997589111,-0.037961605936288834,0],"max":[0.03799792006611824,0.0379602313041687,0.0094959624111652374]},{"bufferView":4,"byteOffset":0,"count":8841,"componentType":5121,"type":"VEC4","normalized":true},{"bufferView":5,"byteOffset":0,"count":53046,"componentType":5125,"type":"SCALAR"},{"bufferView":6,"byteOffset":0,"count":11669,"componentType":5126,"type":"VEC3","min":[-0.030999938026070595,-0.035775627940893173,0],"max":[0.030999938026070595,0.035774212330579758,0.008995964191854]},{"bufferView":7,"byteOffset":0,"count":11669,"componentType":5121,"type":"VEC4","normalized":true},{"bufferView":8,"byteOffset":0,"count":70038,"componentType":5125,"type":"SCALAR"},{"bufferView":9,"byteOffset":0,"count":4138,"componentType":5126,"type":"VEC3","min":[-0.028775926679372787,-0.023975653573870659,0],"max":[0.02877395786345005,0.023974237963557243,0.0084979729726910591]},{"bufferView":10,"byteOffset":0,"count":4138,"componentType":5121,"type":"VEC4","normalized":true},{"bufferView":11,"byteOffset":0,"count":24858,"componentType":5125,"type":"SCALAR"}],"bufferViews":[{"buffer":0,"byteOffset":0,"byteLength":13848,"byteStride":12,"target":34962},{"buffer":0,"byteOffset":13848,"byteLength":4616,"byteStride":4,"target":34962},{"buffer":0,"byteOffset":18464,"byteLength":27696,"target":34963},{"buffer":0,"byteOffset":46160,"byteLength":106092,"byteStride":12,"target":34962},{"buffer":0,"byteOffset":152252,"byteLength":35364,"byteStride":4,"target":34962},{"buffer":0,"byteOffset":187616,"byteLength":212184,"target":34963},{"buffer":0,"byteOffset":399800,"byteLength":140028,"byteStride":12,"target":34962},{"buffer":0,"byteOffset":539828,"byteLength":46676,"byteStride":4,"target":34962},{"buffer":0,"byteOffset":586504,"byteLength":280152,"target":34963},{"buffer":0,"byteOffset":866656,"byteLength":49656,"byteStride":12,"target":34962},{"buffer":0,"byteOffset":916312,"byteLength":16552,"byteStride":4,"target":34962},{"buffer":0,"byteOffset":932864,"byteLength":99432,"target":34963}],"buffers":[{"byteLength":1032296,"uri":"016_-_S_-_Sulphur.bin"}]}