{"asset":{"generator":"3D Builder","version":"2.0"},"scene":0,"scenes":[{"nodes":[0]}],"nodes":[{"children":[1,2,3,4]},{"mesh":0,"matrix":[0.03937000036239624,0,0,0,0,-4.6932697728152561E-9,-0.039369996637105942,0,0,0.039369996637105942,-4.6932697728152561E-9,0,0,0,0,1]},{"mesh":1,"matrix":[0.03937000036239624,0,0,0,0,-4.6932697728152561E-9,-0.039369996637105942,0,0,0.039369996637105942,-4.6932697728152561E-9,0,0,0,0,1]},{"mesh":2,"matrix":[0.03937000036239624,0,0,0,0,-4.6932697728152561E-9,-0.039369996637105942,0,0,0.039369996637105942,-4.6932697728152561E-9,0,0,0,0,1]},{"mesh":3,"matrix":[0.03937000036239624,0,0,0,0,-4.6932697728152561E-9,-0.039369996637105942,0,0,0.039369996637105942,-4.6932697728152561E-9,0,0,0,0,1]}],"meshes":[{"primitives":[{"attributes":{"POSITION":0,"COLOR_0":1},"mode":4,"indices":2}]},{"primitives":[{"attributes":{"POSITION":3,"COLOR_0":4},"mode":4,"indices":5}]},{"primitives":[{"attributes":{"POSITION":6,"COLOR_0":7},"mode":4,"indices":8}]},{"primitives":[{"attributes":{"POSITION":9,"COLOR_0":10},"mode":4,"indices":11}]}],"accessors":[{"bufferView":0,"byteOffset":0,"count":1062,"componentType":5126,"type":"VEC3","min":[-0.43185102939605713,-0.55310302972793579,0],"max":[0.43174901604652405,0.55306702852249146,0.1778000146150589]},{"bufferView":1,"byteOffset":0,"count":1062,"componentType":5121,"type":"VEC4","normalized":true},{"bufferView":2,"byteOffset":0,"count":6372,"componentType":5125,"type":"SCALAR"},{"bufferView":3,"byteOffset":0,"count":10099,"componentType":5126,"type":"VEC3","min":[-0.96520006656646729,-0.964227020740509,0],"max":[0.96514904499053955,0.96419203281402588,0.24119800329208374]},{"bufferView":4,"byteOffset":0,"count":10099,"componentType":5121,"type":"VEC4","normalized":true},{"bufferView":5,"byteOffset":0,"count":60594,"componentType":5125,"type":"SCALAR"},{"bufferView":6,"byteOffset":0,"count":11669,"componentType":5126,"type":"VEC3","min":[-0.78740006685256958,-0.9087030291557312,0],"max":[0.78740006685256958,0.90866702795028687,0.22849801182746887]},{"bufferView":7,"byteOffset":0,"count":11669,"componentType":5121,"type":"VEC4","normalized":true},{"bufferView":8,"byteOffset":0,"count":70038,"componentType":5125,"type":"SCALAR"},{"bufferView":9,"byteOffset":0,"count":4138,"componentType":5126,"type":"VEC3","min":[-0.73091000318527222,-0.60898298025131226,0],"max":[0.73085999488830566,0.6089470386505127,0.21584901213645935]},{"bufferView":10,"byteOffset":0,"count":4138,"componentType":5121,"type":"VEC4","normalized":true},{"bufferView":11,"byteOffset":0,"count":24858,"componentType":5125,"type":"SCALAR"}],"bufferViews":[{"buffer":0,"byteOffset":0,"byteLength":12744,"byteStride":12,"target":34962},{"buffer":0,"byteOffset":12744,"byteLength":4248,"byteStride":4,"target":34962},{"buffer":0,"byteOffset":16992,"byteLength":25488,"target":34963},{"buffer":0,"byteOffset":42480,"byteLength":121188,"byteStride":12,"target":34962},{"buffer":0,"byteOffset":163668,"byteLength":40396,"byteStride":4,"target":34962},{"buffer":0,"byteOffset":204064,"byteLength":242376,"target":34963},{"buffer":0,"byteOffset":446440,"byteLength":140028,"byteStride":12,"target":34962},{"buffer":0,"byteOffset":586468,"byteLength":46676,"byteStride":4,"target":34962},{"buffer":0,"byteOffset":633144,"byteLength":280152,"target":34963},{"buffer":0,"byteOffset":913296,"byteLength":49656,"byteStride":12,"target":34962},{"buffer":0,"byteOffset":962952,"byteLength":16552,"byteStride":4,"target":34962},{"buffer":0,"byteOffset":979504,"byteLength":99432,"target":34963}],"buffers":[{"byteLength":1078936,"uri":"017_-_Cl_-_Chlorine.bin"}]}