{"asset":{"generator":"3D Builder","version":"2.0"},"scene":0,"scenes":[{"nodes":[0]}],"nodes":[{"children":[1,2,3,4,5]},{"mesh":0,"matrix":[0.039370074868202209,0,0,0,0,-4.6932786545994531E-9,-0.039370071142911911,0,0,0.039370071142911911,-4.6932786545994531E-9,0,0,0,0,1]},{"mesh":1,"matrix":[0.039370074868202209,0,0,0,0,-4.6932786545994531E-9,-0.039370071142911911,0,0,0.039370071142911911,-4.6932786545994531E-9,0,0,0,0,1]},{"mesh":2,"matrix":[0.039370074868202209,0,0,0,0,-4.6932786545994531E-9,-0.039370071142911911,0,0,0.039370071142911911,-4.6932786545994531E-9,0,0,0,0,1]},{"mesh":3,"matrix":[0.039370074868202209,0,0,0,0,-4.6932786545994531E-9,-0.039370071142911911,0,0,0.039370071142911911,-4.6932786545994531E-9,0,0,0,0,1]},{"mesh":4,"matrix":[0.039370074868202209,0,0,0,0,-4.6932786545994531E-9,-0.039370071142911911,0,0,0.039370071142911911,-4.6932786545994531E-9,0,0,0,0,1]}],"meshes":[{"primitives":[{"attributes":{"POSITION":0,"COLOR_0":1},"mode":4,"indices":2}]},{"primitives":[{"attributes":{"POSITION":3,"COLOR_0":4},"mode":4,"indices":5}]},{"primitives":[{"attributes":{"POSITION":6,"COLOR_0":7},"mode":4,"indices":8}]},{"primitives":[{"attributes":{"POSITION":9,"COLOR_0":10},"mode":4,"indices":11}]},{"primitives":[{"attributes":{"POSITION":12,"COLOR_0":13},"mode":4,"indices":14}]}],"accessors":[{"bufferView":0,"byteOffset":0,"count":1186,"componentType":5126,"type":"VEC3","min":[-0.43185076117515564,-0.55312812328338623,0],"max":[0.43180009722709656,0.553041934967041,0.17779999971389771]},{"bufferView":1,"byteOffset":0,"count":1186,"componentType":5121,"type":"VEC4","normalized":true},{"bufferView":2,"byteOffset":0,"count":7116,"componentType":5125,"type":"SCALAR"},{"bufferView":3,"byteOffset":0,"count":2396,"componentType":5126,"type":"VEC3","min":[-1.1430000066757202,-1.1418493986129761,0],"max":[1.1430001258850098,1.14181387424469,0.25394919514656067]},{"bufferView":4,"byteOffset":0,"count":2396,"componentType":5121,"type":"VEC4","normalized":true},{"bufferView":5,"byteOffset":0,"count":14376,"componentType":5125,"type":"SCALAR"},{"bufferView":6,"byteOffset":0,"count":24263,"componentType":5126,"type":"VEC3","min":[-1.086510181427002,-0.96425259113311768,0],"max":[1.0864595174789429,0.96421700716018677,0.24119840562343597]},{"bufferView":7,"byteOffset":0,"count":24263,"componentType":5121,"type":"VEC4","normalized":true},{"bufferView":8,"byteOffset":0,"count":145608,"componentType":5125,"type":"SCALAR"},{"bufferView":9,"byteOffset":0,"count":11668,"componentType":5126,"type":"VEC3","min":[-0.78745067119598389,-0.90867739915847778,0],"max":[0.78739994764328,0.90864193439483643,0.22849839925765991]},{"bufferView":10,"byteOffset":0,"count":11668,"componentType":5121,"type":"VEC4","normalized":true},{"bufferView":11,"byteOffset":0,"count":70032,"componentType":5125,"type":"SCALAR"},{"bufferView":12,"byteOffset":0,"count":4138,"componentType":5126,"type":"VEC3","min":[-0.73091030120849609,-0.60900819301605225,0],"max":[0.73085957765579224,0.60897260904312134,0.21579840779304504]},{"bufferView":13,"byteOffset":0,"count":4138,"componentType":5121,"type":"VEC4","normalized":true},{"bufferView":14,"byteOffset":0,"count":24858,"componentType":5125,"type":"SCALAR"}],"bufferViews":[{"buffer":0,"byteOffset":0,"byteLength":14232,"byteStride":12,"target":34962},{"buffer":0,"byteOffset":14232,"byteLength":4744,"byteStride":4,"target":34962},{"buffer":0,"byteOffset":18976,"byteLength":28464,"target":34963},{"buffer":0,"byteOffset":47440,"byteLength":28752,"byteStride":12,"target":34962},{"buffer":0,"byteOffset":76192,"byteLength":9584,"byteStride":4,"target":34962},{"buffer":0,"byteOffset":85776,"byteLength":57504,"target":34963},{"buffer":0,"byteOffset":143280,"byteLength":291156,"byteStride":12,"target":34962},{"buffer":0,"byteOffset":434436,"byteLength":97052,"byteStride":4,"target":34962},{"buffer":0,"byteOffset":531488,"byteLength":582432,"target":34963},{"buffer":0,"byteOffset":1113920,"byteLength":140016,"byteStride":12,"target":34962},{"buffer":0,"byteOffset":1253936,"byteLength":46672,"byteStride":4,"target":34962},{"buffer":0,"byteOffset":1300608,"byteLength":280128,"target":34963},{"buffer":0,"byteOffset":1580736,"byteLength":49656,"byteStride":12,"target":34962},{"buffer":0,"byteOffset":1630392,"byteLength":16552,"byteStride":4,"target":34962},{"buffer":0,"byteOffset":1646944,"byteLength":99432,"target":34963}],"buffers":[{"byteLength":1746376,"uri":"029_-_Cu_-_Copper.bin"}]}