{"asset":{"generator":"3D Builder","version":"2.0"},"scene":0,"scenes":[{"nodes":[0]}],"nodes":[{"children":[1,2,3,4,5,6]},{"mesh":0,"matrix":[0.039370074868202209,0,0,0,0,-4.6932786545994531E-9,-0.039370071142911911,0,0,0.039370071142911911,-4.6932786545994531E-9,0,0,0,0,1]},{"mesh":1,"matrix":[0.039370074868202209,0,0,0,0,-4.6932786545994531E-9,-0.039370071142911911,0,0,0.039370071142911911,-4.6932786545994531E-9,0,0,0,0,1]},{"mesh":2,"matrix":[0.039370074868202209,0,0,0,0,-4.6932786545994531E-9,-0.039370071142911911,0,0,0.039370071142911911,-4.6932786545994531E-9,0,0,0,0,1]},{"mesh":3,"matrix":[0.039370074868202209,0,0,0,0,-4.6932786545994531E-9,-0.039370071142911911,0,0,0.039370071142911911,-4.6932786545994531E-9,0,0,0,0,1]},{"mesh":4,"matrix":[0.039370074868202209,0,0,0,0,-4.6932786545994531E-9,-0.039370071142911911,0,0,0.039370071142911911,-4.6932786545994531E-9,0,0,0,0,1]},{"mesh":5,"matrix":[0.039370074868202209,0,0,0,0,-4.6932786545994531E-9,-0.039370071142911911,0,0,0.039370071142911911,-4.6932786545994531E-9,0,0,0,0,1]}],"meshes":[{"primitives":[{"attributes":{"POSITION":0,"COLOR_0":1},"mode":4,"indices":2}]},{"primitives":[{"attributes":{"POSITION":3,"COLOR_0":4},"mode":4,"indices":5}]},{"primitives":[{"attributes":{"POSITION":6,"COLOR_0":7},"mode":4,"indices":8}]},{"primitives":[{"attributes":{"POSITION":9,"COLOR_0":10},"mode":4,"indices":11}]},{"primitives":[{"attributes":{"POSITION":12,"COLOR_0":13},"mode":4,"indices":14}]},{"primitives":[{"attributes":{"POSITION":15,"COLOR_0":16},"mode":4,"indices":17}]}],"accessors":[{"bufferView":0,"byteOffset":0,"count":1138,"componentType":5126,"type":"VEC3","min":[-0.43185076117515564,-0.55310016870498657,0],"max":[0.43174922466278076,0.55306965112686157,0.17779999971389771]},{"bufferView":1,"byteOffset":0,"count":1138,"componentType":5121,"type":"VEC4","normalized":true},{"bufferView":2,"byteOffset":0,"count":6834,"componentType":5125,"type":"SCALAR"},{"bufferView":3,"byteOffset":0,"count":9942,"componentType":5126,"type":"VEC3","min":[-1.3207998275756836,-1.3194689750671387,0],"max":[1.3208001852035522,1.3194384574890137,0.26659837365150452]},{"bufferView":4,"byteOffset":0,"count":9942,"componentType":5121,"type":"VEC4","normalized":true},{"bufferView":5,"byteOffset":0,"count":59652,"componentType":5125,"type":"SCALAR"},{"bufferView":6,"byteOffset":0,"count":24117,"componentType":5126,"type":"VEC3","min":[-1.1430000066757202,-1.2643002271652222,0],"max":[1.1430001258850098,1.2642699480056763,0.25394919514656067]},{"bufferView":7,"byteOffset":0,"count":24117,"componentType":5121,"type":"VEC4","normalized":true},{"bufferView":8,"byteOffset":0,"count":144732,"componentType":5125,"type":"SCALAR"},{"bufferView":9,"byteOffset":0,"count":24264,"componentType":5126,"type":"VEC3","min":[-1.086510181427002,-0.964224636554718,0],"max":[1.0864595174789429,0.96419423818588257,0.2412492036819458]},{"bufferView":10,"byteOffset":0,"count":24264,"componentType":5121,"type":"VEC4","normalized":true},{"bufferView":11,"byteOffset":0,"count":145608,"componentType":5125,"type":"SCALAR"},{"bufferView":12,"byteOffset":0,"count":11669,"componentType":5126,"type":"VEC3","min":[-0.78745067119598389,-0.90870022773742676,0],"max":[0.78740018606185913,0.90866988897323608,0.22849839925765991]},{"bufferView":13,"byteOffset":0,"count":11669,"componentType":5121,"type":"VEC4","normalized":true},{"bufferView":14,"byteOffset":0,"count":70038,"componentType":5125,"type":"SCALAR"},{"bufferView":15,"byteOffset":0,"count":4138,"componentType":5126,"type":"VEC3","min":[-0.73091030120849609,-0.60898023843765259,0],"max":[0.73085957765579224,0.60894984006881714,0.21579840779304504]},{"bufferView":16,"byteOffset":0,"count":4138,"componentType":5121,"type":"VEC4","normalized":true},{"bufferView":17,"byteOffset":0,"count":24858,"componentType":5125,"type":"SCALAR"}],"bufferViews":[{"buffer":0,"byteOffset":0,"byteLength":13656,"byteStride":12,"target":34962},{"buffer":0,"byteOffset":13656,"byteLength":4552,"byteStride":4,"target":34962},{"buffer":0,"byteOffset":18208,"byteLength":27336,"target":34963},{"buffer":0,"byteOffset":45544,"byteLength":119304,"byteStride":12,"target":34962},{"buffer":0,"byteOffset":164848,"byteLength":39768,"byteStride":4,"target":34962},{"buffer":0,"byteOffset":204616,"byteLength":238608,"target":34963},{"buffer":0,"byteOffset":443224,"byteLength":289404,"byteStride":12,"target":34962},{"buffer":0,"byteOffset":732628,"byteLength":96468,"byteStride":4,"target":34962},{"buffer":0,"byteOffset":829096,"byteLength":578928,"target":34963},{"buffer":0,"byteOffset":1408024,"byteLength":291168,"byteStride":12,"target":34962},{"buffer":0,"byteOffset":1699192,"byteLength":97056,"byteStride":4,"target":34962},{"buffer":0,"byteOffset":1796248,"byteLength":582432,"target":34963},{"buffer":0,"byteOffset":2378680,"byteLength":140028,"byteStride":12,"target":34962},{"buffer":0,"byteOffset":2518708,"byteLength":46676,"byteStride":4,"target":34962},{"buffer":0,"byteOffset":2565384,"byteLength":280152,"target":34963},{"buffer":0,"byteOffset":2845536,"byteLength":49656,"byteStride":12,"target":34962},{"buffer":0,"byteOffset":2895192,"byteLength":16552,"byteStride":4,"target":34962},{"buffer":0,"byteOffset":2911744,"byteLength":99432,"target":34963}],"buffers":[{"byteLength":3011176,"uri":"053_-_I_-_Iodine.bin"}]}