{"asset":{"generator":"3D Builder","version":"2.0"},"scene":0,"scenes":[{"nodes":[0]}],"nodes":[{"children":[1,2,3,4,5,6,7]},{"mesh":0,"matrix":[0.039370074868202209,0,0,0,0,-4.6932786545994531E-9,-0.039370071142911911,0,0,0.039370071142911911,-4.6932786545994531E-9,0,0,0,0,1]},{"mesh":1,"matrix":[0.039370074868202209,0,0,0,0,-4.6932786545994531E-9,-0.039370071142911911,0,0,0.039370071142911911,-4.6932786545994531E-9,0,0,0,0,1]},{"mesh":2,"matrix":[0.039370074868202209,0,0,0,0,-4.6932786545994531E-9,-0.039370071142911911,0,0,0.039370071142911911,-4.6932786545994531E-9,0,0,0,0,1]},{"mesh":3,"matrix":[0.039370074868202209,0,0,0,0,-4.6932786545994531E-9,-0.039370071142911911,0,0,0.039370071142911911,-4.6932786545994531E-9,0,0,0,0,1]},{"mesh":4,"matrix":[0.039370074868202209,0,0,0,0,-4.6932786545994531E-9,-0.039370071142911911,0,0,0.039370071142911911,-4.6932786545994531E-9,0,0,0,0,1]},{"mesh":5,"matrix":[0.039370074868202209,0,0,0,0,-4.6932786545994531E-9,-0.039370071142911911,0,0,0.039370071142911911,-4.6932786545994531E-9,0,0,0,0,1]},{"mesh":6,"matrix":[0.039370074868202209,0,0,0,0,-4.6932786545994531E-9,-0.039370071142911911,0,0,0.039370071142911911,-4.6932786545994531E-9,0,0,0,0,1]}],"meshes":[{"primitives":[{"attributes":{"POSITION":0,"COLOR_0":1},"mode":4,"indices":2}]},{"primitives":[{"attributes":{"POSITION":3,"COLOR_0":4},"mode":4,"indices":5}]},{"primitives":[{"attributes":{"POSITION":6,"COLOR_0":7},"mode":4,"indices":8}]},{"primitives":[{"attributes":{"POSITION":9,"COLOR_0":10},"mode":4,"indices":11}]},{"primitives":[{"attributes":{"POSITION":12,"COLOR_0":13},"mode":4,"indices":14}]},{"primitives":[{"attributes":{"POSITION":15,"COLOR_0":16},"mode":4,"indices":17}]},{"primitives":[{"attributes":{"POSITION":18,"COLOR_0":19},"mode":4,"indices":20}]}],"accessors":[{"bufferView":0,"byteOffset":0,"count":1238,"componentType":5126,"type":"VEC3","min":[-0.43185076117515564,-0.55312556028366089,0],"max":[0.43180000782012939,0.55309522151947021,0.17779999971389771]},{"bufferView":1,"byteOffset":0,"count":1238,"componentType":5121,"type":"VEC4","normalized":true},{"bufferView":2,"byteOffset":0,"count":7428,"componentType":5125,"type":"SCALAR"},{"bufferView":3,"byteOffset":0,"count":2239,"componentType":5126,"type":"VEC3","min":[-1.4986000061035156,-1.4970912933349609,0],"max":[1.4986001253128052,1.4970607757568359,0.27934920787811279]},{"bufferView":4,"byteOffset":0,"count":2239,"componentType":5121,"type":"VEC4","normalized":true},{"bufferView":5,"byteOffset":0,"count":13434,"componentType":5125,"type":"SCALAR"},{"bufferView":6,"byteOffset":0,"count":11506,"componentType":5126,"type":"VEC3","min":[-1.4421103000640869,-1.319494366645813,0],"max":[1.4420595169067383,1.3194130659103394,0.26659837365150452]},{"bufferView":7,"byteOffset":0,"count":11506,"componentType":5121,"type":"VEC4","normalized":true},{"bufferView":8,"byteOffset":0,"count":69060,"componentType":5125,"type":"SCALAR"},{"bufferView":9,"byteOffset":0,"count":24113,"componentType":5126,"type":"VEC3","min":[-1.1430507898330688,-1.2643254995346069,0],"max":[1.1430001258850098,1.2642949819564819,0.25389841198921204]},{"bufferView":10,"byteOffset":0,"count":24113,"componentType":5121,"type":"VEC4","normalized":true},{"bufferView":11,"byteOffset":0,"count":144702,"componentType":5125,"type":"SCALAR"},{"bufferView":12,"byteOffset":0,"count":24274,"componentType":5126,"type":"VEC3","min":[-1.086510181427002,-0.96425002813339233,0],"max":[1.0864595174789429,0.9641687273979187,0.24119840562343597]},{"bufferView":13,"byteOffset":0,"count":24274,"componentType":5121,"type":"VEC4","normalized":true},{"bufferView":14,"byteOffset":0,"count":145692,"componentType":5125,"type":"SCALAR"},{"bufferView":15,"byteOffset":0,"count":11668,"componentType":5126,"type":"VEC3","min":[-0.78739994764328,-0.90867483615875244,0],"max":[0.78734922409057617,0.908644437789917,0.22849839925765991]},{"bufferView":16,"byteOffset":0,"count":11668,"componentType":5121,"type":"VEC4","normalized":true},{"bufferView":17,"byteOffset":0,"count":70032,"componentType":5125,"type":"SCALAR"},{"bufferView":18,"byteOffset":0,"count":4142,"componentType":5126,"type":"VEC3","min":[-0.73091030120849609,-0.6090056300163269,0],"max":[0.73085957765579224,0.60892432928085327,0.21584920585155487]},{"bufferView":19,"byteOffset":0,"count":4142,"componentType":5121,"type":"VEC4","normalized":true},{"bufferView":20,"byteOffset":0,"count":24888,"componentType":5125,"type":"SCALAR"}],"bufferViews":[{"buffer":0,"byteOffset":0,"byteLength":14856,"byteStride":12,"target":34962},{"buffer":0,"byteOffset":14856,"byteLength":4952,"byteStride":4,"target":34962},{"buffer":0,"byteOffset":19808,"byteLength":29712,"target":34963},{"buffer":0,"byteOffset":49520,"byteLength":26868,"byteStride":12,"target":34962},{"buffer":0,"byteOffset":76388,"byteLength":8956,"byteStride":4,"target":34962},{"buffer":0,"byteOffset":85344,"byteLength":53736,"target":34963},{"buffer":0,"byteOffset":139080,"byteLength":138072,"byteStride":12,"target":34962},{"buffer":0,"byteOffset":277152,"byteLength":46024,"byteStride":4,"target":34962},{"buffer":0,"byteOffset":323176,"byteLength":276240,"target":34963},{"buffer":0,"byteOffset":599416,"byteLength":289356,"byteStride":12,"target":34962},{"buffer":0,"byteOffset":888772,"byteLength":96452,"byteStride":4,"target":34962},{"buffer":0,"byteOffset":985224,"byteLength":578808,"target":34963},{"buffer":0,"byteOffset":1564032,"byteLength":291288,"byteStride":12,"target":34962},{"buffer":0,"byteOffset":1855320,"byteLength":97096,"byteStride":4,"target":34962},{"buffer":0,"byteOffset":1952416,"byteLength":582768,"target":34963},{"buffer":0,"byteOffset":2535184,"byteLength":140016,"byteStride":12,"target":34962},{"buffer":0,"byteOffset":2675200,"byteLength":46672,"byteStride":4,"target":34962},{"buffer":0,"byteOffset":2721872,"byteLength":280128,"target":34963},{"buffer":0,"byteOffset":3002000,"byteLength":49704,"byteStride":12,"target":34962},{"buffer":0,"byteOffset":3051704,"byteLength":16568,"byteStride":4,"target":34962},{"buffer":0,"byteOffset":3068272,"byteLength":99552,"target":34963}],"buffers":[{"byteLength":3167824,"uri":"055_-_Cs_-_Caesium.bin"}]}