{"asset":{"generator":"3D Builder","version":"2.0"},"scene":0,"scenes":[{"nodes":[0]}],"nodes":[{"children":[1,2,3,4,5,6,7]},{"mesh":0,"matrix":[0.99999994039535522,0,0,0,0,-1.1920928244535389E-7,-0.99999982118606567,0,0,0.99999982118606567,-1.1920928244535389E-7,0,0,0,0,1]},{"mesh":1,"matrix":[0.99999994039535522,0,0,0,0,-1.1920928244535389E-7,-0.99999982118606567,0,0,0.99999982118606567,-1.1920928244535389E-7,0,0,0,0,1]},{"mesh":2,"matrix":[0.99999994039535522,0,0,0,0,-1.1920928244535389E-7,-0.99999982118606567,0,0,0.99999982118606567,-1.1920928244535389E-7,0,0,0,0,1]},{"mesh":3,"matrix":[0.99999994039535522,0,0,0,0,-1.1920928244535389E-7,-0.99999982118606567,0,0,0.99999982118606567,-1.1920928244535389E-7,0,0,0,0,1]},{"mesh":4,"matrix":[0.99999994039535522,0,0,0,0,-1.1920928244535389E-7,-0.99999982118606567,0,0,0.99999982118606567,-1.1920928244535389E-7,0,0,0,0,1]},{"mesh":5,"matrix":[0.99999994039535522,0,0,0,0,-1.1920928244535389E-7,-0.99999982118606567,0,0,0.99999982118606567,-1.1920928244535389E-7,0,0,0,0,1]},{"mesh":6,"matrix":[0.99999994039535522,0,0,0,0,-1.1920928244535389E-7,-0.99999982118606567,0,0,0.99999982118606567,-1.1920928244535389E-7,0,0,0,0,1]}],"meshes":[{"primitives":[{"attributes":{"POSITION":0,"COLOR_0":1},"mode":4,"indices":2}]},{"primitives":[{"attributes":{"POSITION":3,"COLOR_0":4},"mode":4,"indices":5}]},{"primitives":[{"attributes":{"POSITION":6,"COLOR_0":7},"mode":4,"indices":8}]},{"primitives":[{"attributes":{"POSITION":9,"COLOR_0":10},"mode":4,"indices":11}]},{"primitives":[{"attributes":{"POSITION":12,"COLOR_0":13},"mode":4,"indices":14}]},{"primitives":[{"attributes":{"POSITION":15,"COLOR_0":16},"mode":4,"indices":17}]},{"primitives":[{"attributes":{"POSITION":18,"COLOR_0":19},"mode":4,"indices":20}]}],"accessors":[{"bufferView":0,"byteOffset":0,"count":1016,"componentType":5126,"type":"VEC3","min":[-0.017001999542117119,-0.021776599809527397,0],"max":[0.017000000923871994,0.021775403991341591,0.0070000002160668373]},{"bufferView":1,"byteOffset":0,"count":1016,"componentType":5121,"type":"VEC4","normalized":true},{"bufferView":2,"byteOffset":0,"count":6096,"componentType":5125,"type":"SCALAR"},{"bufferView":3,"byteOffset":0,"count":3500,"componentType":5126,"type":"VEC3","min":[-0.059000004082918167,-0.058940604329109192,0],"max":[0.059000011533498764,0.058939401060342789,0.010998000390827656]},{"bufferView":4,"byteOffset":0,"count":3500,"componentType":5121,"type":"VEC4","normalized":true},{"bufferView":5,"byteOffset":0,"count":21000,"componentType":5125,"type":"SCALAR"},{"bufferView":6,"byteOffset":0,"count":16548,"componentType":5126,"type":"VEC3","min":[-0.056775998324155807,-0.051948599517345428,0],"max":[0.056774001568555832,0.05194539949297905,0.010495999827980995]},{"bufferView":7,"byteOffset":0,"count":16548,"componentType":5121,"type":"VEC4","normalized":true},{"bufferView":8,"byteOffset":0,"count":99312,"componentType":5125,"type":"SCALAR"},{"bufferView":9,"byteOffset":0,"count":41753,"componentType":5126,"type":"VEC3","min":[-0.045002002269029617,-0.0497765988111496,0],"max":[0.045000005513429642,0.049775399267673492,0.0099960006773471832]},{"bufferView":10,"byteOffset":0,"count":41753,"componentType":5121,"type":"VEC4","normalized":true},{"bufferView":11,"byteOffset":0,"count":250542,"componentType":5125,"type":"SCALAR"},{"bufferView":12,"byteOffset":0,"count":24274,"componentType":5126,"type":"VEC3","min":[-0.042775999754667282,-0.037962604314088821,0],"max":[0.042773999273777008,0.037959400564432144,0.0094960005953907967]},{"bufferView":13,"byteOffset":0,"count":24274,"componentType":5121,"type":"VEC4","normalized":true},{"bufferView":14,"byteOffset":0,"count":145692,"componentType":5125,"type":"SCALAR"},{"bufferView":15,"byteOffset":0,"count":11668,"componentType":5126,"type":"VEC3","min":[-0.030999999493360519,-0.035774603486061096,0],"max":[0.030998002737760544,0.035773403942584991,0.00899600051343441]},{"bufferView":16,"byteOffset":0,"count":11668,"componentType":5121,"type":"VEC4","normalized":true},{"bufferView":17,"byteOffset":0,"count":70032,"componentType":5125,"type":"SCALAR"},{"bufferView":18,"byteOffset":0,"count":4142,"componentType":5126,"type":"VEC3","min":[-0.028775999322533607,-0.023976601660251617,0],"max":[0.028774000704288483,0.023973401635885239,0.0084980009123682976]},{"bufferView":19,"byteOffset":0,"count":4142,"componentType":5121,"type":"VEC4","normalized":true},{"bufferView":20,"byteOffset":0,"count":24888,"componentType":5125,"type":"SCALAR"}],"bufferViews":[{"buffer":0,"byteOffset":0,"byteLength":12192,"byteStride":12,"target":34962},{"buffer":0,"byteOffset":12192,"byteLength":4064,"byteStride":4,"target":34962},{"buffer":0,"byteOffset":16256,"byteLength":24384,"target":34963},{"buffer":0,"byteOffset":40640,"byteLength":42000,"byteStride":12,"target":34962},{"buffer":0,"byteOffset":82640,"byteLength":14000,"byteStride":4,"target":34962},{"buffer":0,"byteOffset":96640,"byteLength":84000,"target":34963},{"buffer":0,"byteOffset":180640,"byteLength":198576,"byteStride":12,"target":34962},{"buffer":0,"byteOffset":379216,"byteLength":66192,"byteStride":4,"target":34962},{"buffer":0,"byteOffset":445408,"byteLength":397248,"target":34963},{"buffer":0,"byteOffset":842656,"byteLength":501036,"byteStride":12,"target":34962},{"buffer":0,"byteOffset":1343692,"byteLength":167012,"byteStride":4,"target":34962},{"buffer":0,"byteOffset":1510704,"byteLength":1002168,"target":34963},{"buffer":0,"byteOffset":2512872,"byteLength":291288,"byteStride":12,"target":34962},{"buffer":0,"byteOffset":2804160,"byteLength":97096,"byteStride":4,"target":34962},{"buffer":0,"byteOffset":2901256,"byteLength":582768,"target":34963},{"buffer":0,"byteOffset":3484024,"byteLength":140016,"byteStride":12,"target":34962},{"buffer":0,"byteOffset":3624040,"byteLength":46672,"byteStride":4,"target":34962},{"buffer":0,"byteOffset":3670712,"byteLength":280128,"target":34963},{"buffer":0,"byteOffset":3950840,"byteLength":49704,"byteStride":12,"target":34962},{"buffer":0,"byteOffset":4000544,"byteLength":16568,"byteStride":4,"target":34962},{"buffer":0,"byteOffset":4017112,"byteLength":99552,"target":34963}],"buffers":[{"byteLength":4116664,"uri":"074_-_Tu_-_Tungsten.bin"}]}