{"asset":{"generator":"3D Builder","version":"2.0"},"scene":0,"scenes":[{"nodes":[0]}],"nodes":[{"children":[1,2,3,4,5,6,7,8]},{"mesh":0,"matrix":[0.039370074868202209,0,0,0,0,-4.6932786545994531E-9,-0.039370071142911911,0,0,0.039370071142911911,-4.6932786545994531E-9,0,0,0,0,1]},{"mesh":1,"matrix":[0.039370074868202209,0,0,0,0,-4.6932786545994531E-9,-0.039370071142911911,0,0,0.039370071142911911,-4.6932786545994531E-9,0,0,0,0,1]},{"mesh":2,"matrix":[0.039370074868202209,0,0,0,0,-4.6932786545994531E-9,-0.039370071142911911,0,0,0.039370071142911911,-4.6932786545994531E-9,0,0,0,0,1]},{"mesh":3,"matrix":[0.039370074868202209,0,0,0,0,-4.6932786545994531E-9,-0.039370071142911911,0,0,0.039370071142911911,-4.6932786545994531E-9,0,0,0,0,1]},{"mesh":4,"matrix":[0.039370074868202209,0,0,0,0,-4.6932786545994531E-9,-0.039370071142911911,0,0,0.039370071142911911,-4.6932786545994531E-9,0,0,0,0,1]},{"mesh":5,"matrix":[0.039370074868202209,0,0,0,0,-4.6932786545994531E-9,-0.039370071142911911,0,0,0.039370071142911911,-4.6932786545994531E-9,0,0,0,0,1]},{"mesh":6,"matrix":[0.039370074868202209,0,0,0,0,-4.6932786545994531E-9,-0.039370071142911911,0,0,0.039370071142911911,-4.6932786545994531E-9,0,0,0,0,1]},{"mesh":7,"matrix":[0.039370074868202209,0,0,0,0,-4.6932786545994531E-9,-0.039370071142911911,0,0,0.039370071142911911,-4.6932786545994531E-9,0,0,0,0,1]}],"meshes":[{"primitives":[{"attributes":{"POSITION":0,"COLOR_0":1},"mode":4,"indices":2}]},{"primitives":[{"attributes":{"POSITION":3,"COLOR_0":4},"mode":4,"indices":5}]},{"primitives":[{"attributes":{"POSITION":6,"COLOR_0":7},"mode":4,"indices":8}]},{"primitives":[{"attributes":{"POSITION":9,"COLOR_0":10},"mode":4,"indices":11}]},{"primitives":[{"attributes":{"POSITION":12,"COLOR_0":13},"mode":4,"indices":14}]},{"primitives":[{"attributes":{"POSITION":15,"COLOR_0":16},"mode":4,"indices":17}]},{"primitives":[{"attributes":{"POSITION":18,"COLOR_0":19},"mode":4,"indices":20}]},{"primitives":[{"attributes":{"POSITION":21,"COLOR_0":22},"mode":4,"indices":23}]}],"accessors":[{"bufferView":0,"byteOffset":0,"count":1192,"componentType":5126,"type":"VEC3","min":[-0.43185076117515564,-0.55309772491455078,0],"max":[0.43174922466278076,0.553072452545166,0.17779999971389771]},{"bufferView":1,"byteOffset":0,"count":1192,"componentType":5121,"type":"VEC4","normalized":true},{"bufferView":2,"byteOffset":0,"count":7152,"componentType":5125,"type":"SCALAR"},{"bufferView":3,"byteOffset":0,"count":3500,"componentType":5126,"type":"VEC3","min":[-1.6763999462127686,-1.6747109889984131,0],"max":[1.67634916305542,1.6746857166290283,0.29204919934272766]},{"bufferView":4,"byteOffset":0,"count":3500,"componentType":5121,"type":"VEC4","normalized":true},{"bufferView":5,"byteOffset":0,"count":21000,"componentType":5125,"type":"SCALAR"},{"bufferView":6,"byteOffset":0,"count":11357,"componentType":5126,"type":"VEC3","min":[-1.4986000061035156,-1.619897723197937,0],"max":[1.4986001253128052,1.6198724508285522,0.27929839491844177]},{"bufferView":7,"byteOffset":0,"count":11357,"componentType":5121,"type":"VEC4","normalized":true},{"bufferView":8,"byteOffset":0,"count":68166,"componentType":5125,"type":"SCALAR"},{"bufferView":9,"byteOffset":0,"count":32931,"componentType":5126,"type":"VEC3","min":[-1.4421103000640869,-1.3194665908813477,0],"max":[1.4420595169067383,1.3194411993026733,0.26664918661117554]},{"bufferView":10,"byteOffset":0,"count":32931,"componentType":5121,"type":"VEC4","normalized":true},{"bufferView":11,"byteOffset":0,"count":197610,"componentType":5125,"type":"SCALAR"},{"bufferView":12,"byteOffset":0,"count":41765,"componentType":5126,"type":"VEC3","min":[-1.1430000066757202,-1.2642977237701416,0],"max":[1.1430001258850098,1.2642216682434082,0.25389841198921204]},{"bufferView":13,"byteOffset":0,"count":41765,"componentType":5121,"type":"VEC4","normalized":true},{"bufferView":14,"byteOffset":0,"count":250614,"componentType":5125,"type":"SCALAR"},{"bufferView":15,"byteOffset":0,"count":24276,"componentType":5126,"type":"VEC3","min":[-1.086510181427002,-0.96427291631698608,0],"max":[1.0864595174789429,0.96419674158096313,0.2412492036819458]},{"bufferView":16,"byteOffset":0,"count":24276,"componentType":5121,"type":"VEC4","normalized":true},{"bufferView":17,"byteOffset":0,"count":145704,"componentType":5125,"type":"SCALAR"},{"bufferView":18,"byteOffset":0,"count":11669,"componentType":5126,"type":"VEC3","min":[-0.78739994764328,-0.90869772434234619,0],"max":[0.78734922409057617,0.90867245197296143,0.22849839925765991]},{"bufferView":19,"byteOffset":0,"count":11669,"componentType":5121,"type":"VEC4","normalized":true},{"bufferView":20,"byteOffset":0,"count":70038,"componentType":5125,"type":"SCALAR"},{"bufferView":21,"byteOffset":0,"count":4145,"componentType":5126,"type":"VEC3","min":[-0.73091030120849609,-0.60902851819992065,0],"max":[0.73085957765579224,0.60895228385925293,0.21584920585155487]},{"bufferView":22,"byteOffset":0,"count":4145,"componentType":5121,"type":"VEC4","normalized":true},{"bufferView":23,"byteOffset":0,"count":24918,"componentType":5125,"type":"SCALAR"}],"bufferViews":[{"buffer":0,"byteOffset":0,"byteLength":14304,"byteStride":12,"target":34962},{"buffer":0,"byteOffset":14304,"byteLength":4768,"byteStride":4,"target":34962},{"buffer":0,"byteOffset":19072,"byteLength":28608,"target":34963},{"buffer":0,"byteOffset":47680,"byteLength":42000,"byteStride":12,"target":34962},{"buffer":0,"byteOffset":89680,"byteLength":14000,"byteStride":4,"target":34962},{"buffer":0,"byteOffset":103680,"byteLength":84000,"target":34963},{"buffer":0,"byteOffset":187680,"byteLength":136284,"byteStride":12,"target":34962},{"buffer":0,"byteOffset":323964,"byteLength":45428,"byteStride":4,"target":34962},{"buffer":0,"byteOffset":369392,"byteLength":272664,"target":34963},{"buffer":0,"byteOffset":642056,"byteLength":395172,"byteStride":12,"target":34962},{"buffer":0,"byteOffset":1037228,"byteLength":131724,"byteStride":4,"target":34962},{"buffer":0,"byteOffset":1168952,"byteLength":790440,"target":34963},{"buffer":0,"byteOffset":1959392,"byteLength":501180,"byteStride":12,"target":34962},{"buffer":0,"byteOffset":2460572,"byteLength":167060,"byteStride":4,"target":34962},{"buffer":0,"byteOffset":2627632,"byteLength":1002456,"target":34963},{"buffer":0,"byteOffset":3630088,"byteLength":291312,"byteStride":12,"target":34962},{"buffer":0,"byteOffset":3921400,"byteLength":97104,"byteStride":4,"target":34962},{"buffer":0,"byteOffset":4018504,"byteLength":582816,"target":34963},{"buffer":0,"byteOffset":4601320,"byteLength":140028,"byteStride":12,"target":34962},{"buffer":0,"byteOffset":4741348,"byteLength":46676,"byteStride":4,"target":34962},{"buffer":0,"byteOffset":4788024,"byteLength":280152,"target":34963},{"buffer":0,"byteOffset":5068176,"byteLength":49740,"byteStride":12,"target":34962},{"buffer":0,"byteOffset":5117916,"byteLength":16580,"byteStride":4,"target":34962},{"buffer":0,"byteOffset":5134496,"byteLength":99672,"target":34963}],"buffers":[{"byteLength":5234168,"uri":"095_-_Am_-_Americium.bin"}]}