{"asset":{"generator":"3D Builder","version":"2.0"},"scene":0,"scenes":[{"nodes":[0]}],"nodes":[{"children":[1,2,3,4,5,6,7,8]},{"mesh":0,"matrix":[0.039370074868202209,0,0,0,0,-4.6932786545994531E-9,-0.039370071142911911,0,0,0.039370071142911911,-4.6932786545994531E-9,0,0,0,0,1]},{"mesh":1,"matrix":[0.039370074868202209,0,0,0,0,-4.6932786545994531E-9,-0.039370071142911911,0,0,0.039370071142911911,-4.6932786545994531E-9,0,0,0,0,1]},{"mesh":2,"matrix":[0.039370074868202209,0,0,0,0,-4.6932786545994531E-9,-0.039370071142911911,0,0,0.039370071142911911,-4.6932786545994531E-9,0,0,0,0,1]},{"mesh":3,"matrix":[0.039370074868202209,0,0,0,0,-4.6932786545994531E-9,-0.039370071142911911,0,0,0.039370071142911911,-4.6932786545994531E-9,0,0,0,0,1]},{"mesh":4,"matrix":[0.039370074868202209,0,0,0,0,-4.6932786545994531E-9,-0.039370071142911911,0,0,0.039370071142911911,-4.6932786545994531E-9,0,0,0,0,1]},{"mesh":5,"matrix":[0.039370074868202209,0,0,0,0,-4.6932786545994531E-9,-0.039370071142911911,0,0,0.039370071142911911,-4.6932786545994531E-9,0,0,0,0,1]},{"mesh":6,"matrix":[0.039370074868202209,0,0,0,0,-4.6932786545994531E-9,-0.039370071142911911,0,0,0.039370071142911911,-4.6932786545994531E-9,0,0,0,0,1]},{"mesh":7,"matrix":[0.039370074868202209,0,0,0,0,-4.6932786545994531E-9,-0.039370071142911911,0,0,0.039370071142911911,-4.6932786545994531E-9,0,0,0,0,1]}],"meshes":[{"primitives":[{"attributes":{"POSITION":0,"COLOR_0":1},"mode":4,"indices":2}]},{"primitives":[{"attributes":{"POSITION":3,"COLOR_0":4},"mode":4,"indices":5}]},{"primitives":[{"attributes":{"POSITION":6,"COLOR_0":7},"mode":4,"indices":8}]},{"primitives":[{"attributes":{"POSITION":9,"COLOR_0":10},"mode":4,"indices":11}]},{"primitives":[{"attributes":{"POSITION":12,"COLOR_0":13},"mode":4,"indices":14}]},{"primitives":[{"attributes":{"POSITION":15,"COLOR_0":16},"mode":4,"indices":17}]},{"primitives":[{"attributes":{"POSITION":18,"COLOR_0":19},"mode":4,"indices":20}]},{"primitives":[{"attributes":{"POSITION":21,"COLOR_0":22},"mode":4,"indices":23}]}],"accessors":[{"bufferView":0,"byteOffset":0,"count":1140,"componentType":5126,"type":"VEC3","min":[-0.43185076117515564,-0.55309772491455078,0],"max":[0.43174922466278076,0.553072452545166,0.17779999971389771]},{"bufferView":1,"byteOffset":0,"count":1140,"componentType":5121,"type":"VEC4","normalized":true},{"bufferView":2,"byteOffset":0,"count":6840,"componentType":5125,"type":"SCALAR"},{"bufferView":3,"byteOffset":0,"count":4761,"componentType":5126,"type":"VEC3","min":[-1.6763999462127686,-1.6747109889984131,0],"max":[1.67634916305542,1.6746857166290283,0.29204919934272766]},{"bufferView":4,"byteOffset":0,"count":4761,"componentType":5121,"type":"VEC4","normalized":true},{"bufferView":5,"byteOffset":0,"count":28566,"componentType":5125,"type":"SCALAR"},{"bufferView":6,"byteOffset":0,"count":11357,"componentType":5126,"type":"VEC3","min":[-1.4986000061035156,-1.619897723197937,0],"max":[1.4986001253128052,1.6198724508285522,0.27929839491844177]},{"bufferView":7,"byteOffset":0,"count":11357,"componentType":5121,"type":"VEC4","normalized":true},{"bufferView":8,"byteOffset":0,"count":68166,"componentType":5125,"type":"SCALAR"},{"bufferView":9,"byteOffset":0,"count":41767,"componentType":5126,"type":"VEC3","min":[-1.4421103000640869,-1.3194665908813477,0],"max":[1.4420595169067383,1.3194411993026733,0.26664918661117554]},{"bufferView":10,"byteOffset":0,"count":41767,"componentType":5121,"type":"VEC4","normalized":true},{"bufferView":11,"byteOffset":0,"count":250626,"componentType":5125,"type":"SCALAR"},{"bufferView":12,"byteOffset":0,"count":41765,"componentType":5126,"type":"VEC3","min":[-1.1430000066757202,-1.2642977237701416,0],"max":[1.1430001258850098,1.2642216682434082,0.25389841198921204]},{"bufferView":13,"byteOffset":0,"count":41765,"componentType":5121,"type":"VEC4","normalized":true},{"bufferView":14,"byteOffset":0,"count":250614,"componentType":5125,"type":"SCALAR"},{"bufferView":15,"byteOffset":0,"count":24276,"componentType":5126,"type":"VEC3","min":[-1.086510181427002,-0.96427291631698608,0],"max":[1.0864595174789429,0.96419674158096313,0.2412492036819458]},{"bufferView":16,"byteOffset":0,"count":24276,"componentType":5121,"type":"VEC4","normalized":true},{"bufferView":17,"byteOffset":0,"count":145704,"componentType":5125,"type":"SCALAR"},{"bufferView":18,"byteOffset":0,"count":11669,"componentType":5126,"type":"VEC3","min":[-0.78739994764328,-0.90869772434234619,0],"max":[0.78734922409057617,0.90867245197296143,0.22849839925765991]},{"bufferView":19,"byteOffset":0,"count":11669,"componentType":5121,"type":"VEC4","normalized":true},{"bufferView":20,"byteOffset":0,"count":70038,"componentType":5125,"type":"SCALAR"},{"bufferView":21,"byteOffset":0,"count":4145,"componentType":5126,"type":"VEC3","min":[-0.73091030120849609,-0.60902851819992065,0],"max":[0.73085957765579224,0.60895228385925293,0.21584920585155487]},{"bufferView":22,"byteOffset":0,"count":4145,"componentType":5121,"type":"VEC4","normalized":true},{"bufferView":23,"byteOffset":0,"count":24918,"componentType":5125,"type":"SCALAR"}],"bufferViews":[{"buffer":0,"byteOffset":0,"byteLength":13680,"byteStride":12,"target":34962},{"buffer":0,"byteOffset":13680,"byteLength":4560,"byteStride":4,"target":34962},{"buffer":0,"byteOffset":18240,"byteLength":27360,"target":34963},{"buffer":0,"byteOffset":45600,"byteLength":57132,"byteStride":12,"target":34962},{"buffer":0,"byteOffset":102732,"byteLength":19044,"byteStride":4,"target":34962},{"buffer":0,"byteOffset":121776,"byteLength":114264,"target":34963},{"buffer":0,"byteOffset":236040,"byteLength":136284,"byteStride":12,"target":34962},{"buffer":0,"byteOffset":372324,"byteLength":45428,"byteStride":4,"target":34962},{"buffer":0,"byteOffset":417752,"byteLength":272664,"target":34963},{"buffer":0,"byteOffset":690416,"byteLength":501204,"byteStride":12,"target":34962},{"buffer":0,"byteOffset":1191620,"byteLength":167068,"byteStride":4,"target":34962},{"buffer":0,"byteOffset":1358688,"byteLength":1002504,"target":34963},{"buffer":0,"byteOffset":2361192,"byteLength":501180,"byteStride":12,"target":34962},{"buffer":0,"byteOffset":2862372,"byteLength":167060,"byteStride":4,"target":34962},{"buffer":0,"byteOffset":3029432,"byteLength":1002456,"target":34963},{"buffer":0,"byteOffset":4031888,"byteLength":291312,"byteStride":12,"target":34962},{"buffer":0,"byteOffset":4323200,"byteLength":97104,"byteStride":4,"target":34962},{"buffer":0,"byteOffset":4420304,"byteLength":582816,"target":34963},{"buffer":0,"byteOffset":5003120,"byteLength":140028,"byteStride":12,"target":34962},{"buffer":0,"byteOffset":5143148,"byteLength":46676,"byteStride":4,"target":34962},{"buffer":0,"byteOffset":5189824,"byteLength":280152,"target":34963},{"buffer":0,"byteOffset":5469976,"byteLength":49740,"byteStride":12,"target":34962},{"buffer":0,"byteOffset":5519716,"byteLength":16580,"byteStride":4,"target":34962},{"buffer":0,"byteOffset":5536296,"byteLength":99672,"target":34963}],"buffers":[{"byteLength":5635968,"uri":"103_-_Lr_-_Lawrencium.bin"}]}