{"asset":{"generator":"3D Builder","version":"2.0"},"scene":0,"scenes":[{"nodes":[0]}],"nodes":[{"mesh":0,"matrix":[1,0,0,0,0,-1.1920928955078125E-7,-0.99999988079071045,0,0,0.99999988079071045,-1.1920928955078125E-7,0,-1.3020039091315994E-7,1.6659042501032673E-7,1.0082958397106268E-6,1]}],"meshes":[{"primitives":[{"attributes":{"POSITION":0},"mode":4,"indices":1,"material":0}]}],"materials":[{"name":"Turquoise_1_0","pbrMetallicRoughness":{"baseColorFactor":[0,0.3515326976776123,0.80695235729217529,1],"metallicFactor":0,"roughnessFactor":0.498039186000824},"alphaMode":"OPAQUE"}],"accessors":[{"bufferView":0,"byteOffset":0,"count":841,"componentType":5126,"type":"VEC3","min":[-0.00916315522044897,0.0025418936274945736,9.02859028428793E-7],"max":[0.0076369047164916992,0.027030019089579582,0.0053210379555821419]},{"bufferView":1,"byteOffset":0,"count":5034,"componentType":5125,"type":"SCALAR"}],"bufferViews":[{"buffer":0,"byteOffset":0,"byteLength":10092,"byteStride":12,"target":34962},{"buffer":0,"byteOffset":10092,"byteLength":20136,"target":34963}],"buffers":[{"byteLength":30228,"uri":"2.bin"}]}