{"asset":{"generator":"3D Builder","version":"2.0"},"scene":0,"scenes":[{"nodes":[0]}],"nodes":[{"mesh":0,"matrix":[1,0,0,0,0,-1.1920928955078125E-7,-0.99999988079071045,0,0,0.99999988079071045,-1.1920928955078125E-7,0,-1.3020039091315994E-7,1.6659042501032673E-7,1.0082958397106268E-6,1]}],"meshes":[{"primitives":[{"attributes":{"POSITION":0},"mode":4,"indices":1,"material":0}]}],"materials":[{"name":"Turquoise_1_0","pbrMetallicRoughness":{"baseColorFactor":[0,0.3515326976776123,0.80695235729217529,1],"metallicFactor":0,"roughnessFactor":0.498039186000824},"alphaMode":"OPAQUE"}],"accessors":[{"bufferView":0,"byteOffset":0,"count":397,"componentType":5126,"type":"VEC3","min":[0.031651206314563751,0.0025367015041410923,9.274226613342762E-7],"max":[0.051249265670776367,0.027036763727664948,0.00532106775790453]},{"bufferView":1,"byteOffset":0,"count":2382,"componentType":5125,"type":"SCALAR"}],"bufferViews":[{"buffer":0,"byteOffset":0,"byteLength":4764,"byteStride":12,"target":34962},{"buffer":0,"byteOffset":4764,"byteLength":9528,"target":34963}],"buffers":[{"byteLength":14292,"uri":"4.bin"}]}