{"asset":{"generator":"3D Builder","version":"2.0"},"scene":0,"scenes":[{"nodes":[0]}],"nodes":[{"mesh":0,"matrix":[1,0,0,0,0,-1.1920928955078125E-7,-0.99999988079071045,0,0,0.99999988079071045,-1.1920928955078125E-7,0,-1.3020039091315994E-7,1.6659042501032673E-7,1.0082958397106268E-6,1]}],"meshes":[{"primitives":[{"attributes":{"POSITION":0},"mode":4,"indices":1,"material":0}]}],"materials":[{"name":"Green_1_1","pbrMetallicRoughness":{"baseColorFactor":[0.015208514407277107,0.49693304300308228,0.072271861135959625,1],"metallicFactor":0,"roughnessFactor":0.498039186000824},"alphaMode":"OPAQUE"}],"accessors":[{"bufferView":0,"byteOffset":0,"count":1451,"componentType":5126,"type":"VEC3","min":[-0.05083925649523735,-0.027310589328408241,9.4994902610778809E-7],"max":[-0.033935345709323883,-0.0027464833110570908,0.0054110647179186344]},{"bufferView":1,"byteOffset":0,"count":8694,"componentType":5125,"type":"SCALAR"}],"bufferViews":[{"buffer":0,"byteOffset":0,"byteLength":17412,"byteStride":12,"target":34962},{"buffer":0,"byteOffset":17412,"byteLength":34776,"target":34963}],"buffers":[{"byteLength":52188,"uri":"5.bin"}]}