{"asset":{"generator":"3D Builder","version":"2.0"},"scene":0,"scenes":[{"nodes":[0]}],"nodes":[{"mesh":0,"matrix":[1,0,0,0,0,-1.1920928955078125E-7,-0.99999988079071045,0,0,0.99999988079071045,-1.1920928955078125E-7,0,-1.3020039091315994E-7,1.6659042501032673E-7,1.0082958397106268E-6,1]}],"meshes":[{"primitives":[{"attributes":{"POSITION":0},"mode":4,"indices":1,"material":0}]}],"materials":[{"name":"Green_1_1","pbrMetallicRoughness":{"baseColorFactor":[0.015208514407277107,0.49693304300308228,0.072271861135959625,1],"metallicFactor":0,"roughnessFactor":0.498039186000824},"alphaMode":"OPAQUE"}],"accessors":[{"bufferView":0,"byteOffset":0,"count":1966,"componentType":5126,"type":"VEC3","min":[-0.030132975429296494,-0.027322279289364815,3.3964170143008232E-7],"max":[-0.012726942077279091,-0.002734258770942688,0.0053204544819891453]},{"bufferView":1,"byteOffset":0,"count":11796,"componentType":5125,"type":"SCALAR"}],"bufferViews":[{"buffer":0,"byteOffset":0,"byteLength":23592,"byteStride":12,"target":34962},{"buffer":0,"byteOffset":23592,"byteLength":47184,"target":34963}],"buffers":[{"byteLength":70776,"uri":"6.bin"}]}