{"asset":{"generator":"3D Builder","version":"2.0"},"scene":0,"scenes":[{"nodes":[0]}],"nodes":[{"mesh":0,"matrix":[0.99999994039535522,0,0,0,0,-1.1920928244535389E-7,-0.99999982118606567,0,0,0.99999982118606567,-1.1920928244535389E-7,0,0.040198300033807755,-1.9961306918503396E-7,0.027320897206664085,1]}],"meshes":[{"primitives":[{"attributes":{"POSITION":0},"mode":4,"indices":1,"material":0}]}],"materials":[{"name":"Dark red_1_0","pbrMetallicRoughness":{"baseColorFactor":[0.24620139598846436,0,0.0074990317225456238,1],"metallicFactor":0,"roughnessFactor":0.49803900718688965},"alphaMode":"OPAQUE"}],"accessors":[{"bufferView":0,"byteOffset":0,"count":406,"componentType":5126,"type":"VEC3","min":[-0.057182002812623978,0.034812599420547485,2.0186399751764839E-7],"max":[-0.038741502910852432,0.054274603724479675,0.004226400051265955]},{"bufferView":1,"byteOffset":0,"count":2436,"componentType":5125,"type":"SCALAR"}],"bufferViews":[{"buffer":0,"byteOffset":0,"byteLength":4872,"byteStride":12,"target":34962},{"buffer":0,"byteOffset":4872,"byteLength":9744,"target":34963}],"buffers":[{"byteLength":14616,"uri":"A.bin"}]}