{"asset":{"generator":"3D Builder","version":"2.0"},"scene":0,"scenes":[{"nodes":[0,1,2,3,4,5,6,7,8,9,10,11,12,13,14,15,16,17,18,19,20,21,22,23,24,25]}],"nodes":[{"mesh":0,"matrix":[1,0,0,0,0,-1.1920928955078125E-7,-0.99999988079071045,0,0,0.99999988079071045,-1.1920928955078125E-7,0,0,-3.6095570540391122E-16,-3.027915473907683E-9,1]},{"mesh":1,"matrix":[1,0,0,0,0,-1.1920928955078125E-7,-0.99999988079071045,0,0,0.99999988079071045,-1.1920928955078125E-7,0,0,-3.6095570540391122E-16,-3.027915473907683E-9,1]},{"mesh":2,"matrix":[1,0,0,0,0,-1.1920928955078125E-7,-0.99999988079071045,0,0,0.99999988079071045,-1.1920928955078125E-7,0,0,-3.6095570540391122E-16,-3.027915473907683E-9,1]},{"mesh":3,"matrix":[1,0,0,0,0,-1.1920928955078125E-7,-0.99999988079071045,0,0,0.99999988079071045,-1.1920928955078125E-7,0,0,-3.6095570540391122E-16,-3.027915473907683E-9,1]},{"mesh":4,"matrix":[1,0,0,0,0,-1.1920928955078125E-7,-0.99999988079071045,0,0,0.99999988079071045,-1.1920928955078125E-7,0,0,-3.6095570540391122E-16,-3.027915473907683E-9,1]},{"mesh":5,"matrix":[1,0,0,0,0,-1.1920928955078125E-7,-0.99999988079071045,0,0,0.99999988079071045,-1.1920928955078125E-7,0,0,-3.6095570540391122E-16,-3.027915473907683E-9,1]},{"mesh":6,"matrix":[1,0,0,0,0,-1.1920928955078125E-7,-0.99999988079071045,0,0,0.99999988079071045,-1.1920928955078125E-7,0,0,-3.6095570540391122E-16,-3.027915473907683E-9,1]},{"mesh":7,"matrix":[1,0,0,0,0,-1.1920928955078125E-7,-0.99999988079071045,0,0,0.99999988079071045,-1.1920928955078125E-7,0,0,-3.6095570540391122E-16,-3.027915473907683E-9,1]},{"mesh":8,"matrix":[1,0,0,0,0,-1.1920928955078125E-7,-0.99999988079071045,0,0,0.99999988079071045,-1.1920928955078125E-7,0,0,-3.6095570540391122E-16,-3.027915473907683E-9,1]},{"mesh":9,"matrix":[1,0,0,0,0,-1.1920928955078125E-7,-0.99999988079071045,0,0,0.99999988079071045,-1.1920928955078125E-7,0,0,-3.6095570540391122E-16,-3.027915473907683E-9,1]},{"mesh":10,"matrix":[1,0,0,0,0,-1.1920928955078125E-7,-0.99999988079071045,0,0,0.99999988079071045,-1.1920928955078125E-7,0,0,-3.6095570540391122E-16,-3.027915473907683E-9,1]},{"mesh":11,"matrix":[1,0,0,0,0,-1.1920928955078125E-7,-0.99999988079071045,0,0,0.99999988079071045,-1.1920928955078125E-7,0,0,-3.6095570540391122E-16,-3.027915473907683E-9,1]},{"mesh":12,"matrix":[1,0,0,0,0,-1.1920928955078125E-7,-0.99999988079071045,0,0,0.99999988079071045,-1.1920928955078125E-7,0,0,-3.6095570540391122E-16,-3.027915473907683E-9,1]},{"mesh":13,"matrix":[1,0,0,0,0,-1.1920928955078125E-7,-0.99999988079071045,0,0,0.99999988079071045,-1.1920928955078125E-7,0,0,-3.6095570540391122E-16,-3.027915473907683E-9,1]},{"mesh":14,"matrix":[1,0,0,0,0,-1.1920928955078125E-7,-0.99999988079071045,0,0,0.99999988079071045,-1.1920928955078125E-7,0,0,-3.6095570540391122E-16,-3.027915473907683E-9,1]},{"mesh":15,"matrix":[1,0,0,0,0,-1.1920928955078125E-7,-0.99999988079071045,0,0,0.99999988079071045,-1.1920928955078125E-7,0,0,-3.6095570540391122E-16,-3.027915473907683E-9,1]},{"mesh":16,"matrix":[1,0,0,0,0,-1.1920928955078125E-7,-0.99999988079071045,0,0,0.99999988079071045,-1.1920928955078125E-7,0,0,-3.6095570540391122E-16,-3.027915473907683E-9,1]},{"mesh":17,"matrix":[1,0,0,0,0,-1.1920928955078125E-7,-0.99999988079071045,0,0,0.99999988079071045,-1.1920928955078125E-7,0,0,-3.6095570540391122E-16,-3.027915473907683E-9,1]},{"mesh":18,"matrix":[1,0,0,0,0,-1.1920928955078125E-7,-0.99999988079071045,0,0,0.99999988079071045,-1.1920928955078125E-7,0,0,-3.6095570540391122E-16,-3.027915473907683E-9,1]},{"mesh":19,"matrix":[1,0,0,0,0,-1.1920928955078125E-7,-0.99999988079071045,0,0,0.99999988079071045,-1.1920928955078125E-7,0,0,-3.6095570540391122E-16,-3.027915473907683E-9,1]},{"mesh":20,"matrix":[1,0,0,0,0,-1.1920928955078125E-7,-0.99999988079071045,0,0,0.99999988079071045,-1.1920928955078125E-7,0,0,-3.6095570540391122E-16,-3.027915473907683E-9,1]},{"mesh":21,"matrix":[1,0,0,0,0,-1.1920928955078125E-7,-0.99999988079071045,0,0,0.99999988079071045,-1.1920928955078125E-7,0,0,-3.6095570540391122E-16,-3.027915473907683E-9,1]},{"mesh":22,"matrix":[1,0,0,0,0,-1.1920928955078125E-7,-0.99999988079071045,0,0,0.99999988079071045,-1.1920928955078125E-7,0,0,-3.6095570540391122E-16,-3.027915473907683E-9,1]},{"mesh":23,"matrix":[1,0,0,0,0,-1.1920928955078125E-7,-0.99999988079071045,0,0,0.99999988079071045,-1.1920928955078125E-7,0,0,-3.6095570540391122E-16,-3.027915473907683E-9,1]},{"mesh":24,"matrix":[1,0,0,0,0,-1.1920928955078125E-7,-0.99999988079071045,0,0,0.99999988079071045,-1.1920928955078125E-7,0,0,-3.6095570540391122E-16,-3.027915473907683E-9,1]},{"mesh":25,"matrix":[1,0,0,0,0,-1.1920928955078125E-7,-0.99999988079071045,0,0,0.99999988079071045,-1.1920928955078125E-7,0,0,-3.6095570540391122E-16,-3.027915473907683E-9,1]}],"meshes":[{"primitives":[{"attributes":{"POSITION":0,"COLOR_0":1},"mode":4,"indices":2}]},{"primitives":[{"attributes":{"POSITION":3,"COLOR_0":4},"mode":4,"indices":5}]},{"primitives":[{"attributes":{"POSITION":6,"COLOR_0":7},"mode":4,"indices":8}]},{"primitives":[{"attributes":{"POSITION":9,"COLOR_0":10},"mode":4,"indices":11}]},{"primitives":[{"attributes":{"POSITION":12},"mode":4,"indices":15,"material":0},{"attributes":{"POSITION":13,"COLOR_0":14},"mode":4,"indices":16}]},{"primitives":[{"attributes":{"POSITION":17,"COLOR_0":18},"mode":4,"indices":19}]},{"primitives":[{"attributes":{"POSITION":20,"COLOR_0":21},"mode":4,"indices":22}]},{"primitives":[{"attributes":{"POSITION":23,"COLOR_0":24},"mode":4,"indices":25}]},{"primitives":[{"attributes":{"POSITION":26,"COLOR_0":27},"mode":4,"indices":28}]},{"primitives":[{"attributes":{"POSITION":29,"COLOR_0":30},"mode":4,"indices":31}]},{"primitives":[{"attributes":{"POSITION":32,"COLOR_0":33},"mode":4,"indices":34}]},{"primitives":[{"attributes":{"POSITION":35,"COLOR_0":36},"mode":4,"indices":37}]},{"primitives":[{"attributes":{"POSITION":38,"COLOR_0":39},"mode":4,"indices":40}]},{"primitives":[{"attributes":{"POSITION":41},"mode":4,"indices":44,"material":1},{"attributes":{"POSITION":42,"COLOR_0":43},"mode":4,"indices":45}]},{"primitives":[{"attributes":{"POSITION":46,"COLOR_0":47},"mode":4,"indices":48}]},{"primitives":[{"attributes":{"POSITION":49,"COLOR_0":50},"mode":4,"indices":51}]},{"primitives":[{"attributes":{"POSITION":52,"COLOR_0":53},"mode":4,"indices":54}]},{"primitives":[{"attributes":{"POSITION":55,"COLOR_0":56},"mode":4,"indices":57}]},{"primitives":[{"attributes":{"POSITION":58,"COLOR_0":59},"mode":4,"indices":60}]},{"primitives":[{"attributes":{"POSITION":61,"COLOR_0":62},"mode":4,"indices":63}]},{"primitives":[{"attributes":{"POSITION":64,"COLOR_0":65},"mode":4,"indices":66}]},{"primitives":[{"attributes":{"POSITION":67,"COLOR_0":68},"mode":4,"indices":69}]},{"primitives":[{"attributes":{"POSITION":70,"COLOR_0":71},"mode":4,"indices":72}]},{"primitives":[{"attributes":{"POSITION":73,"COLOR_0":74},"mode":4,"indices":75}]},{"primitives":[{"attributes":{"POSITION":76,"COLOR_0":77},"mode":4,"indices":78}]},{"primitives":[{"attributes":{"POSITION":79,"COLOR_0":80},"mode":4,"indices":81}]}],"accessors":[{"bufferView":0,"byteOffset":0,"count":455,"componentType":5126,"type":"VEC3","min":[-0.035074420273303986,0.013629810884594917,5.2538217687470024E-7],"max":[-0.018427621573209763,0.0330902636051178,0.0042267413809895515]},{"bufferView":1,"byteOffset":0,"count":455,"componentType":5121,"type":"VEC4","normalized":true},{"bufferView":2,"byteOffset":0,"count":2718,"componentType":5125,"type":"SCALAR"},{"bufferView":3,"byteOffset":0,"count":430,"componentType":5126,"type":"VEC3","min":[-0.010390146635472775,0.012659023515880108,5.9732667523348937E-7],"max":[-0.0029643729794770479,0.032121051102876663,0.0042252000421285629]},{"bufferView":4,"byteOffset":0,"count":430,"componentType":5121,"type":"VEC4","normalized":true},{"bufferView":5,"byteOffset":0,"count":2568,"componentType":5125,"type":"SCALAR"},{"bufferView":6,"byteOffset":0,"count":406,"componentType":5126,"type":"VEC3","min":[-0.057181887328624725,0.034812606871128082,3.0751090207559173E-7],"max":[-0.038741409778594971,0.054274648427963257,0.0042265076190233231]},{"bufferView":7,"byteOffset":0,"count":406,"componentType":5121,"type":"VEC4","normalized":true},{"bufferView":8,"byteOffset":0,"count":2436,"componentType":5125,"type":"SCALAR"},{"bufferView":9,"byteOffset":0,"count":1419,"componentType":5126,"type":"VEC3","min":[-0.035429235547780991,0.03481103852391243,3.4552047623037652E-7],"max":[-0.020766779780387878,0.054273068904876709,0.0042249551042914391]},{"bufferView":10,"byteOffset":0,"count":1419,"componentType":5121,"type":"VEC4","normalized":true},{"bufferView":11,"byteOffset":0,"count":8526,"componentType":5125,"type":"SCALAR"},{"bufferView":12,"byteOffset":0,"count":6,"componentType":5126,"type":"VEC3","min":[-0.0027907222975045443,0.049255914986133575,0.0020451706368476152],"max":[-0.00069200916914269328,0.052805140614509583,0.0022977555636316538]},{"bufferView":12,"byteOffset":72,"count":1513,"componentType":5126,"type":"VEC3","min":[-0.016938414424657822,0.03458235040307045,4.1106238768406911E-7],"max":[-0.00056490226415917277,0.054501906037330627,0.0042186612263321877]},{"bufferView":13,"byteOffset":0,"count":1513,"componentType":5121,"type":"VEC4","normalized":true},{"bufferView":14,"byteOffset":0,"count":6,"componentType":5125,"type":"SCALAR"},{"bufferView":14,"byteOffset":24,"count":9072,"componentType":5125,"type":"SCALAR"},{"bufferView":15,"byteOffset":0,"count":954,"componentType":5126,"type":"VEC3","min":[0.0046846615150570869,0.034812640398740768,4.4819884692515188E-7],"max":[0.022484876215457916,0.054273072630167007,0.0042250598780810833]},{"bufferView":16,"byteOffset":0,"count":954,"componentType":5121,"type":"VEC4","normalized":true},{"bufferView":17,"byteOffset":0,"count":5724,"componentType":5125,"type":"SCALAR"},{"bufferView":18,"byteOffset":0,"count":462,"componentType":5126,"type":"VEC3","min":[0.027473468333482742,0.034811172634363174,5.0675578222580953E-7],"max":[0.039706770330667496,0.054273225367069244,0.0042251218110322952]},{"bufferView":19,"byteOffset":0,"count":462,"componentType":5121,"type":"VEC4","normalized":true},{"bufferView":20,"byteOffset":0,"count":2760,"componentType":5125,"type":"SCALAR"},{"bufferView":21,"byteOffset":0,"count":404,"componentType":5126,"type":"VEC3","min":[0.045163720846176147,0.0348111055791378,5.5256509767787065E-7],"max":[0.057396996766328812,0.054273128509521484,0.0042251478880643845]},{"bufferView":22,"byteOffset":0,"count":404,"componentType":5121,"type":"VEC4","normalized":true},{"bufferView":23,"byteOffset":0,"count":2412,"componentType":5125,"type":"SCALAR"},{"bufferView":24,"byteOffset":0,"count":1214,"componentType":5126,"type":"VEC3","min":[-0.05716334655880928,0.011921076104044914,5.0017831654258771E-7],"max":[-0.040014531463384628,0.031939152628183365,0.0042425785213708878]},{"bufferView":25,"byteOffset":0,"count":1214,"componentType":5121,"type":"VEC4","normalized":true},{"bufferView":26,"byteOffset":0,"count":7278,"componentType":5125,"type":"SCALAR"},{"bufferView":27,"byteOffset":0,"count":546,"componentType":5126,"type":"VEC3","min":[0.003154706908389926,0.012576399371027946,6.5471937205074937E-7],"max":[0.0168178491294384,0.032203655689954758,0.0042172982357442379]},{"bufferView":28,"byteOffset":0,"count":546,"componentType":5121,"type":"VEC4","normalized":true},{"bufferView":29,"byteOffset":0,"count":3264,"componentType":5125,"type":"SCALAR"},{"bufferView":30,"byteOffset":0,"count":474,"componentType":5126,"type":"VEC3","min":[0.026369243860244751,0.013628343120217323,6.8364857952474267E-7],"max":[0.041125442832708359,0.033090375363826752,0.0042268880642950535]},{"bufferView":31,"byteOffset":0,"count":474,"componentType":5121,"type":"VEC4","normalized":true},{"bufferView":32,"byteOffset":0,"count":2832,"componentType":5125,"type":"SCALAR"},{"bufferView":33,"byteOffset":0,"count":296,"componentType":5126,"type":"VEC3","min":[0.045319341123104095,0.013629751279950142,7.330668836402765E-7],"max":[0.057552635669708252,0.033090181648731232,0.0042253481224179268]},{"bufferView":34,"byteOffset":0,"count":296,"componentType":5121,"type":"VEC4","normalized":true},{"bufferView":35,"byteOffset":0,"count":1764,"componentType":5125,"type":"SCALAR"},{"bufferView":36,"byteOffset":0,"count":512,"componentType":5126,"type":"VEC3","min":[-0.059000197798013687,-0.0080184033140540123,6.468031301665178E-7],"max":[-0.038980510085821152,0.011445234529674053,0.0042252819985151291]},{"bufferView":37,"byteOffset":0,"count":512,"componentType":5121,"type":"VEC4","normalized":true},{"bufferView":38,"byteOffset":0,"count":3060,"componentType":5125,"type":"SCALAR"},{"bufferView":39,"byteOffset":0,"count":3,"componentType":5126,"type":"VEC3","min":[-0.033049654215574265,-0.0057924580760300159,0.0042267637327313423],"max":[-0.033046480268239975,0.009224272333085537,0.0042268922552466393]},{"bufferView":39,"byteOffset":36,"count":406,"componentType":5126,"type":"VEC3","min":[-0.03527388721704483,-0.0080167194828391075,7.0803758944748552E-7],"max":[-0.018226727843284607,0.011445316486060619,0.0042269248515367508]},{"bufferView":40,"byteOffset":0,"count":406,"componentType":5121,"type":"VEC4","normalized":true},{"bufferView":41,"byteOffset":0,"count":3,"componentType":5125,"type":"SCALAR"},{"bufferView":41,"byteOffset":12,"count":2421,"componentType":5125,"type":"SCALAR"},{"bufferView":42,"byteOffset":0,"count":972,"componentType":5126,"type":"VEC3","min":[-0.0165107361972332,-0.00827480386942625,7.7433628575818148E-7],"max":[0.0031562342774122953,0.011701950803399086,0.00422696303576231]},{"bufferView":43,"byteOffset":0,"count":972,"componentType":5121,"type":"VEC4","normalized":true},{"bufferView":44,"byteOffset":0,"count":5832,"componentType":5125,"type":"SCALAR"},{"bufferView":45,"byteOffset":0,"count":591,"componentType":5126,"type":"VEC3","min":[0.0048260274343192577,-0.0080167446285486221,8.1123994277731981E-7],"max":[0.019285131245851517,0.011445282027125359,0.0042254067957401276]},{"bufferView":46,"byteOffset":0,"count":591,"componentType":5121,"type":"VEC4","normalized":true},{"bufferView":47,"byteOffset":0,"count":3546,"componentType":5125,"type":"SCALAR"},{"bufferView":48,"byteOffset":0,"count":1157,"componentType":5126,"type":"VEC3","min":[0.021493811160326004,-0.012601835653185844,8.6508202912227716E-7],"max":[0.042897280305624008,0.012578027322888374,0.0042255311273038387]},{"bufferView":49,"byteOffset":0,"count":1157,"componentType":5121,"type":"VEC4","normalized":true},{"bufferView":50,"byteOffset":0,"count":6942,"componentType":5125,"type":"SCALAR"},{"bufferView":51,"byteOffset":0,"count":728,"componentType":5126,"type":"VEC3","min":[0.043872229754924774,-0.0080164102837443352,9.1345259534136858E-7],"max":[0.059000197798013687,0.01144561730325222,0.0042271208949387074]},{"bufferView":52,"byteOffset":0,"count":728,"componentType":5121,"type":"VEC4","normalized":true},{"bufferView":53,"byteOffset":0,"count":4368,"componentType":5125,"type":"SCALAR"},{"bufferView":54,"byteOffset":0,"count":2021,"componentType":5126,"type":"VEC3","min":[-0.055949404835700989,-0.033458136022090912,8.8621141003386583E-7],"max":[-0.03988092765212059,-0.014032665640115738,0.0042270757257938385]},{"bufferView":55,"byteOffset":0,"count":2021,"componentType":5121,"type":"VEC4","normalized":true},{"bufferView":56,"byteOffset":0,"count":12210,"componentType":5125,"type":"SCALAR"},{"bufferView":57,"byteOffset":0,"count":329,"componentType":5126,"type":"VEC3","min":[-0.035326775163412094,-0.03347720205783844,9.2276582108752336E-7],"max":[-0.020869266241788864,-0.014013582840561867,0.0042255311273038387]},{"bufferView":58,"byteOffset":0,"count":329,"componentType":5121,"type":"VEC4","normalized":true},{"bufferView":59,"byteOffset":0,"count":1962,"componentType":5125,"type":"SCALAR"},{"bufferView":60,"byteOffset":0,"count":692,"componentType":5126,"type":"VEC3","min":[-0.014755844138562679,-0.033475540578365326,9.7602571713650832E-7],"max":[0.0010902180802077055,-0.014015095308423042,0.0042255884036421776]},{"bufferView":61,"byteOffset":0,"count":692,"componentType":5121,"type":"VEC4","normalized":true},{"bufferView":62,"byteOffset":0,"count":4146,"componentType":5125,"type":"SCALAR"},{"bufferView":63,"byteOffset":0,"count":328,"componentType":5126,"type":"VEC3","min":[0.0067525627091526985,-0.033477097749710083,1.0313229950043024E-6],"max":[0.024579774588346481,-0.014013472944498062,0.0042256442829966545]},{"bufferView":64,"byteOffset":0,"count":328,"componentType":5121,"type":"VEC4","normalized":true},{"bufferView":65,"byteOffset":0,"count":1956,"componentType":5125,"type":"SCALAR"},{"bufferView":66,"byteOffset":0,"count":480,"componentType":5126,"type":"VEC3","min":[-0.027249710634350777,-0.054500263184309006,1.1215447557333391E-6],"max":[-0.010390023700892925,-0.035039804875850677,0.004225745331496]},{"bufferView":67,"byteOffset":0,"count":480,"componentType":5121,"type":"VEC4","normalized":true},{"bufferView":68,"byteOffset":0,"count":2868,"componentType":5125,"type":"SCALAR"},{"bufferView":69,"byteOffset":0,"count":357,"componentType":5126,"type":"VEC3","min":[-0.0079708052799105644,-0.05450187623500824,1.1709629461620352E-6],"max":[0.0090954052284359932,-0.035038251429796219,0.0042257825843989849]},{"bufferView":70,"byteOffset":0,"count":357,"componentType":5121,"type":"VEC4","normalized":true},{"bufferView":71,"byteOffset":0,"count":2130,"componentType":5125,"type":"SCALAR"},{"bufferView":72,"byteOffset":0,"count":405,"componentType":5126,"type":"VEC3","min":[0.011399325914680958,-0.054501909762620926,1.2216617051308276E-6],"max":[0.025858435779809952,-0.035038277506828308,0.0042258431203663349]},{"bufferView":73,"byteOffset":0,"count":405,"componentType":5121,"type":"VEC4","normalized":true},{"bufferView":74,"byteOffset":0,"count":2418,"componentType":5125,"type":"SCALAR"},{"bufferView":75,"byteOffset":0,"count":492,"componentType":5126,"type":"VEC3","min":[0.028252227231860161,-0.033475868403911591,0],"max":[0.055341769009828568,-0.014013833366334438,0.0042262263596057892]},{"bufferView":76,"byteOffset":0,"count":492,"componentType":5121,"type":"VEC4","normalized":true},{"bufferView":77,"byteOffset":0,"count":2940,"componentType":5125,"type":"SCALAR"}],"materials":[{"name":"Dark red_1_0","pbrMetallicRoughness":{"baseColorFactor":[0.24620139598846436,0,0.0074990317225456238,1],"metallicFactor":0,"roughnessFactor":0.498039186000824},"alphaMode":"OPAQUE"},{"name":"Green_1_2","pbrMetallicRoughness":{"baseColorFactor":[0.015208514407277107,0.49693304300308228,0.072271861135959625,1],"metallicFactor":0,"roughnessFactor":0.498039186000824},"alphaMode":"OPAQUE"}],"bufferViews":[{"buffer":0,"byteOffset":0,"byteLength":5460,"byteStride":12,"target":34962},{"buffer":0,"byteOffset":5460,"byteLength":1820,"byteStride":4,"target":34962},{"buffer":0,"byteOffset":7280,"byteLength":10872,"target":34963},{"buffer":0,"byteOffset":18152,"byteLength":5160,"byteStride":12,"target":34962},{"buffer":0,"byteOffset":23312,"byteLength":1720,"byteStride":4,"target":34962},{"buffer":0,"byteOffset":25032,"byteLength":10272,"target":34963},{"buffer":0,"byteOffset":35304,"byteLength":4872,"byteStride":12,"target":34962},{"buffer":0,"byteOffset":40176,"byteLength":1624,"byteStride":4,"target":34962},{"buffer":0,"byteOffset":41800,"byteLength":9744,"target":34963},{"buffer":0,"byteOffset":51544,"byteLength":17028,"byteStride":12,"target":34962},{"buffer":0,"byteOffset":68572,"byteLength":5676,"byteStride":4,"target":34962},{"buffer":0,"byteOffset":74248,"byteLength":34104,"target":34963},{"buffer":0,"byteOffset":108352,"byteLength":18228,"byteStride":12,"target":34962},{"buffer":0,"byteOffset":126580,"byteLength":6052,"byteStride":4,"target":34962},{"buffer":0,"byteOffset":132632,"byteLength":36312,"target":34963},{"buffer":0,"byteOffset":168944,"byteLength":11448,"byteStride":12,"target":34962},{"buffer":0,"byteOffset":180392,"byteLength":3816,"byteStride":4,"target":34962},{"buffer":0,"byteOffset":184208,"byteLength":22896,"target":34963},{"buffer":0,"byteOffset":207104,"byteLength":5544,"byteStride":12,"target":34962},{"buffer":0,"byteOffset":212648,"byteLength":1848,"byteStride":4,"target":34962},{"buffer":0,"byteOffset":214496,"byteLength":11040,"target":34963},{"buffer":0,"byteOffset":225536,"byteLength":4848,"byteStride":12,"target":34962},{"buffer":0,"byteOffset":230384,"byteLength":1616,"byteStride":4,"target":34962},{"buffer":0,"byteOffset":232000,"byteLength":9648,"target":34963},{"buffer":0,"byteOffset":241648,"byteLength":14568,"byteStride":12,"target":34962},{"buffer":0,"byteOffset":256216,"byteLength":4856,"byteStride":4,"target":34962},{"buffer":0,"byteOffset":261072,"byteLength":29112,"target":34963},{"buffer":0,"byteOffset":290184,"byteLength":6552,"byteStride":12,"target":34962},{"buffer":0,"byteOffset":296736,"byteLength":2184,"byteStride":4,"target":34962},{"buffer":0,"byteOffset":298920,"byteLength":13056,"target":34963},{"buffer":0,"byteOffset":311976,"byteLength":5688,"byteStride":12,"target":34962},{"buffer":0,"byteOffset":317664,"byteLength":1896,"byteStride":4,"target":34962},{"buffer":0,"byteOffset":319560,"byteLength":11328,"target":34963},{"buffer":0,"byteOffset":330888,"byteLength":3552,"byteStride":12,"target":34962},{"buffer":0,"byteOffset":334440,"byteLength":1184,"byteStride":4,"target":34962},{"buffer":0,"byteOffset":335624,"byteLength":7056,"target":34963},{"buffer":0,"byteOffset":342680,"byteLength":6144,"byteStride":12,"target":34962},{"buffer":0,"byteOffset":348824,"byteLength":2048,"byteStride":4,"target":34962},{"buffer":0,"byteOffset":350872,"byteLength":12240,"target":34963},{"buffer":0,"byteOffset":363112,"byteLength":4908,"byteStride":12,"target":34962},{"buffer":0,"byteOffset":368020,"byteLength":1624,"byteStride":4,"target":34962},{"buffer":0,"byteOffset":369644,"byteLength":9696,"target":34963},{"buffer":0,"byteOffset":379340,"byteLength":11664,"byteStride":12,"target":34962},{"buffer":0,"byteOffset":391004,"byteLength":3888,"byteStride":4,"target":34962},{"buffer":0,"byteOffset":394892,"byteLength":23328,"target":34963},{"buffer":0,"byteOffset":418220,"byteLength":7092,"byteStride":12,"target":34962},{"buffer":0,"byteOffset":425312,"byteLength":2364,"byteStride":4,"target":34962},{"buffer":0,"byteOffset":427676,"byteLength":14184,"target":34963},{"buffer":0,"byteOffset":441860,"byteLength":13884,"byteStride":12,"target":34962},{"buffer":0,"byteOffset":455744,"byteLength":4628,"byteStride":4,"target":34962},{"buffer":0,"byteOffset":460372,"byteLength":27768,"target":34963},{"buffer":0,"byteOffset":488140,"byteLength":8736,"byteStride":12,"target":34962},{"buffer":0,"byteOffset":496876,"byteLength":2912,"byteStride":4,"target":34962},{"buffer":0,"byteOffset":499788,"byteLength":17472,"target":34963},{"buffer":0,"byteOffset":517260,"byteLength":24252,"byteStride":12,"target":34962},{"buffer":0,"byteOffset":541512,"byteLength":8084,"byteStride":4,"target":34962},{"buffer":0,"byteOffset":549596,"byteLength":48840,"target":34963},{"buffer":0,"byteOffset":598436,"byteLength":3948,"byteStride":12,"target":34962},{"buffer":0,"byteOffset":602384,"byteLength":1316,"byteStride":4,"target":34962},{"buffer":0,"byteOffset":603700,"byteLength":7848,"target":34963},{"buffer":0,"byteOffset":611548,"byteLength":8304,"byteStride":12,"target":34962},{"buffer":0,"byteOffset":619852,"byteLength":2768,"byteStride":4,"target":34962},{"buffer":0,"byteOffset":622620,"byteLength":16584,"target":34963},{"buffer":0,"byteOffset":639204,"byteLength":3936,"byteStride":12,"target":34962},{"buffer":0,"byteOffset":643140,"byteLength":1312,"byteStride":4,"target":34962},{"buffer":0,"byteOffset":644452,"byteLength":7824,"target":34963},{"buffer":0,"byteOffset":652276,"byteLength":5760,"byteStride":12,"target":34962},{"buffer":0,"byteOffset":658036,"byteLength":1920,"byteStride":4,"target":34962},{"buffer":0,"byteOffset":659956,"byteLength":11472,"target":34963},{"buffer":0,"byteOffset":671428,"byteLength":4284,"byteStride":12,"target":34962},{"buffer":0,"byteOffset":675712,"byteLength":1428,"byteStride":4,"target":34962},{"buffer":0,"byteOffset":677140,"byteLength":8520,"target":34963},{"buffer":0,"byteOffset":685660,"byteLength":4860,"byteStride":12,"target":34962},{"buffer":0,"byteOffset":690520,"byteLength":1620,"byteStride":4,"target":34962},{"buffer":0,"byteOffset":692140,"byteLength":9672,"target":34963},{"buffer":0,"byteOffset":701812,"byteLength":5904,"byteStride":12,"target":34962},{"buffer":0,"byteOffset":707716,"byteLength":1968,"byteStride":4,"target":34962},{"buffer":0,"byteOffset":709684,"byteLength":11760,"target":34963}],"buffers":[{"byteLength":721444,"uri":"ABCDEFGHIJKLMNOPQRSTUVWXYZ.bin"}]}