{"asset":{"generator":"3D Builder","version":"2.0"},"scene":0,"scenes":[{"nodes":[0,1,2,3,4,5,6,7,8,9,10,11,12,13,14,15,16,17,18,19,20,21,22,23,24,25]}],"nodes":[{"mesh":0,"matrix":[1,0,0,0,0,-1.1920928955078125E-7,-0.99999988079071045,0,0,0.99999988079071045,-1.1920928955078125E-7,0,9.3865395456305123E-8,1.0564688324166127E-7,-4.2390833954186746E-8,1]},{"mesh":1,"matrix":[1,0,0,0,0,-1.1920928955078125E-7,-0.99999988079071045,0,0,0.99999988079071045,-1.1920928955078125E-7,0,9.3865395456305123E-8,1.0564688324166127E-7,-4.2390833954186746E-8,1]},{"mesh":2,"matrix":[1,0,0,0,0,-1.1920928955078125E-7,-0.99999988079071045,0,0,0.99999988079071045,-1.1920928955078125E-7,0,9.3865395456305123E-8,1.0564688324166127E-7,-4.2390833954186746E-8,1]},{"mesh":3,"matrix":[1,0,0,0,0,-1.1920928955078125E-7,-0.99999988079071045,0,0,0.99999988079071045,-1.1920928955078125E-7,0,9.3865395456305123E-8,1.0564688324166127E-7,-4.2390833954186746E-8,1]},{"mesh":4,"matrix":[1,0,0,0,0,-1.1920928955078125E-7,-0.99999988079071045,0,0,0.99999988079071045,-1.1920928955078125E-7,0,9.3865395456305123E-8,1.0564688324166127E-7,-4.2390833954186746E-8,1]},{"mesh":5,"matrix":[1,0,0,0,0,-1.1920928955078125E-7,-0.99999988079071045,0,0,0.99999988079071045,-1.1920928955078125E-7,0,9.3865395456305123E-8,1.0564688324166127E-7,-4.2390833954186746E-8,1]},{"mesh":6,"matrix":[1,0,0,0,0,-1.1920928955078125E-7,-0.99999988079071045,0,0,0.99999988079071045,-1.1920928955078125E-7,0,9.3865395456305123E-8,1.0564688324166127E-7,-4.2390833954186746E-8,1]},{"mesh":7,"matrix":[1,0,0,0,0,-1.1920928955078125E-7,-0.99999988079071045,0,0,0.99999988079071045,-1.1920928955078125E-7,0,9.3865395456305123E-8,1.0564688324166127E-7,-4.2390833954186746E-8,1]},{"mesh":8,"matrix":[1,0,0,0,0,-1.1920928955078125E-7,-0.99999988079071045,0,0,0.99999988079071045,-1.1920928955078125E-7,0,9.3865395456305123E-8,1.0564688324166127E-7,-4.2390833954186746E-8,1]},{"mesh":9,"matrix":[1,0,0,0,0,-1.1920928955078125E-7,-0.99999988079071045,0,0,0.99999988079071045,-1.1920928955078125E-7,0,9.3865395456305123E-8,1.0564688324166127E-7,-4.2390833954186746E-8,1]},{"mesh":10,"matrix":[1,0,0,0,0,-1.1920928955078125E-7,-0.99999988079071045,0,0,0.99999988079071045,-1.1920928955078125E-7,0,9.3865395456305123E-8,1.0564688324166127E-7,-4.2390833954186746E-8,1]},{"mesh":11,"matrix":[1,0,0,0,0,-1.1920928955078125E-7,-0.99999988079071045,0,0,0.99999988079071045,-1.1920928955078125E-7,0,9.3865395456305123E-8,1.0564688324166127E-7,-4.2390833954186746E-8,1]},{"mesh":12,"matrix":[1,0,0,0,0,-1.1920928955078125E-7,-0.99999988079071045,0,0,0.99999988079071045,-1.1920928955078125E-7,0,9.3865395456305123E-8,1.0564688324166127E-7,-4.2390833954186746E-8,1]},{"mesh":13,"matrix":[1,0,0,0,0,-1.1920928955078125E-7,-0.99999988079071045,0,0,0.99999988079071045,-1.1920928955078125E-7,0,9.3865395456305123E-8,1.0564688324166127E-7,-4.2390833954186746E-8,1]},{"mesh":14,"matrix":[1,0,0,0,0,-1.1920928955078125E-7,-0.99999988079071045,0,0,0.99999988079071045,-1.1920928955078125E-7,0,9.3865395456305123E-8,1.0564688324166127E-7,-4.2390833954186746E-8,1]},{"mesh":15,"matrix":[1,0,0,0,0,-1.1920928955078125E-7,-0.99999988079071045,0,0,0.99999988079071045,-1.1920928955078125E-7,0,9.3865395456305123E-8,1.0564688324166127E-7,-4.2390833954186746E-8,1]},{"mesh":16,"matrix":[1,0,0,0,0,-1.1920928955078125E-7,-0.99999988079071045,0,0,0.99999988079071045,-1.1920928955078125E-7,0,9.3865395456305123E-8,1.0564688324166127E-7,-4.2390833954186746E-8,1]},{"mesh":17,"matrix":[1,0,0,0,0,-1.1920928955078125E-7,-0.99999988079071045,0,0,0.99999988079071045,-1.1920928955078125E-7,0,9.3865395456305123E-8,1.0564688324166127E-7,-4.2390833954186746E-8,1]},{"mesh":18,"matrix":[1,0,0,0,0,-1.1920928955078125E-7,-0.99999988079071045,0,0,0.99999988079071045,-1.1920928955078125E-7,0,9.3865395456305123E-8,1.0564688324166127E-7,-4.2390833954186746E-8,1]},{"mesh":19,"matrix":[1,0,0,0,0,-1.1920928955078125E-7,-0.99999988079071045,0,0,0.99999988079071045,-1.1920928955078125E-7,0,9.3865395456305123E-8,1.0564688324166127E-7,-4.2390833954186746E-8,1]},{"mesh":20,"matrix":[1,0,0,0,0,-1.1920928955078125E-7,-0.99999988079071045,0,0,0.99999988079071045,-1.1920928955078125E-7,0,9.3865395456305123E-8,1.0564688324166127E-7,-4.2390833954186746E-8,1]},{"mesh":21,"matrix":[1,0,0,0,0,-1.1920928955078125E-7,-0.99999988079071045,0,0,0.99999988079071045,-1.1920928955078125E-7,0,9.3865395456305123E-8,1.0564688324166127E-7,-4.2390833954186746E-8,1]},{"mesh":22,"matrix":[1,0,0,0,0,-1.1920928955078125E-7,-0.99999988079071045,0,0,0.99999988079071045,-1.1920928955078125E-7,0,9.3865395456305123E-8,1.0564688324166127E-7,-4.2390833954186746E-8,1]},{"mesh":23,"matrix":[1,0,0,0,0,-1.1920928955078125E-7,-0.99999988079071045,0,0,0.99999988079071045,-1.1920928955078125E-7,0,9.3865395456305123E-8,1.0564688324166127E-7,-4.2390833954186746E-8,1]},{"mesh":24,"matrix":[1,0,0,0,0,-1.1920928955078125E-7,-0.99999988079071045,0,0,0.99999988079071045,-1.1920928955078125E-7,0,9.3865395456305123E-8,1.0564688324166127E-7,-4.2390833954186746E-8,1]},{"mesh":25,"matrix":[1,0,0,0,0,-1.1920928955078125E-7,-0.99999988079071045,0,0,0.99999988079071045,-1.1920928955078125E-7,0,9.3865395456305123E-8,1.0564688324166127E-7,-4.2390833954186746E-8,1]}],"meshes":[{"primitives":[{"attributes":{"POSITION":0},"mode":4,"indices":1,"material":0}]},{"primitives":[{"attributes":{"POSITION":2},"mode":4,"indices":3,"material":1}]},{"primitives":[{"attributes":{"POSITION":4},"mode":4,"indices":5,"material":1}]},{"primitives":[{"attributes":{"POSITION":6},"mode":4,"indices":7,"material":1}]},{"primitives":[{"attributes":{"POSITION":8},"mode":4,"indices":9,"material":1}]},{"primitives":[{"attributes":{"POSITION":10},"mode":4,"indices":11,"material":1}]},{"primitives":[{"attributes":{"POSITION":12},"mode":4,"indices":13,"material":1}]},{"primitives":[{"attributes":{"POSITION":14},"mode":4,"indices":15,"material":0}]},{"primitives":[{"attributes":{"POSITION":16},"mode":4,"indices":17,"material":0}]},{"primitives":[{"attributes":{"POSITION":18},"mode":4,"indices":19,"material":0}]},{"primitives":[{"attributes":{"POSITION":20},"mode":4,"indices":21,"material":0}]},{"primitives":[{"attributes":{"POSITION":22},"mode":4,"indices":23,"material":0}]},{"primitives":[{"attributes":{"POSITION":24},"mode":4,"indices":25,"material":2}]},{"primitives":[{"attributes":{"POSITION":26},"mode":4,"indices":27,"material":2}]},{"primitives":[{"attributes":{"POSITION":28},"mode":4,"indices":29,"material":2}]},{"primitives":[{"attributes":{"POSITION":30},"mode":4,"indices":31,"material":2}]},{"primitives":[{"attributes":{"POSITION":32},"mode":4,"indices":33,"material":2}]},{"primitives":[{"attributes":{"POSITION":34},"mode":4,"indices":35,"material":2}]},{"primitives":[{"attributes":{"POSITION":36},"mode":4,"indices":37,"material":3}]},{"primitives":[{"attributes":{"POSITION":38},"mode":4,"indices":39,"material":3}]},{"primitives":[{"attributes":{"POSITION":40},"mode":4,"indices":41,"material":3}]},{"primitives":[{"attributes":{"POSITION":42},"mode":4,"indices":43,"material":3}]},{"primitives":[{"attributes":{"POSITION":44},"mode":4,"indices":45,"material":1}]},{"primitives":[{"attributes":{"POSITION":46},"mode":4,"indices":47,"material":1}]},{"primitives":[{"attributes":{"POSITION":48},"mode":4,"indices":49,"material":1}]},{"primitives":[{"attributes":{"POSITION":50},"mode":4,"indices":51,"material":3}]}],"materials":[{"name":"Turquoise_1_1","pbrMetallicRoughness":{"baseColorFactor":[0,0.3515326976776123,0.80695235729217529,1],"metallicFactor":0,"roughnessFactor":0.498039186000824},"alphaMode":"OPAQUE"},{"name":"Dark red_1_0","pbrMetallicRoughness":{"baseColorFactor":[0.24620139598846436,0,0.0074990317225456238,1],"metallicFactor":0,"roughnessFactor":0.498039186000824},"alphaMode":"OPAQUE"},{"name":"Green_1_2","pbrMetallicRoughness":{"baseColorFactor":[0.015208514407277107,0.49693304300308228,0.072271861135959625,1],"metallicFactor":0,"roughnessFactor":0.498039186000824},"alphaMode":"OPAQUE"},{"name":"Orange_1_3","pbrMetallicRoughness":{"baseColorFactor":[1,0.21223072707653046,0.018500218167901039,1],"metallicFactor":0,"roughnessFactor":0.498039186000824},"alphaMode":"OPAQUE"}],"accessors":[{"bufferView":0,"byteOffset":0,"count":430,"componentType":5126,"type":"VEC3","min":[-0.010390237905085087,0.012658984400331974,4.9168005489264033E-7],"max":[-0.0029644668102264404,0.032121017575263977,0.0042250943370163441]},{"bufferView":1,"byteOffset":0,"count":2568,"componentType":5125,"type":"SCALAR"},{"bufferView":2,"byteOffset":0,"count":406,"componentType":5126,"type":"VEC3","min":[-0.057181980460882187,0.03481258824467659,2.0186416804790497E-7],"max":[-0.038741514086723328,0.054274622350931168,0.0042264033108949661]},{"bufferView":3,"byteOffset":0,"count":2436,"componentType":5125,"type":"SCALAR"},{"bufferView":4,"byteOffset":0,"count":1419,"componentType":5126,"type":"VEC3","min":[-0.035429317504167557,0.034811008721590042,2.3987377062439919E-7],"max":[-0.02076687291264534,0.05427304282784462,0.004224852193146944]},{"bufferView":5,"byteOffset":0,"count":8526,"componentType":5125,"type":"SCALAR"},{"bufferView":6,"byteOffset":0,"count":1513,"componentType":5126,"type":"VEC3","min":[-0.016938507556915283,0.034582320600748062,3.0541551154783519E-7],"max":[-0.0005649961531162262,0.054501879960298538,0.0042185569182038307]},{"bufferView":7,"byteOffset":0,"count":9078,"componentType":5125,"type":"SCALAR"},{"bufferView":8,"byteOffset":0,"count":954,"componentType":5126,"type":"VEC3","min":[0.0046845660544931889,0.034812599420547485,3.4255208447575569E-7],"max":[0.022484783083200455,0.054273057729005814,0.0042249551042914391]},{"bufferView":9,"byteOffset":0,"count":5724,"componentType":5125,"type":"SCALAR"},{"bufferView":10,"byteOffset":0,"count":462,"componentType":5126,"type":"VEC3","min":[0.027473375201225281,0.034811154007911682,4.011089913547039E-7],"max":[0.039706677198410034,0.054273203015327454,0.0042250175029039383]},{"bufferView":11,"byteOffset":0,"count":2760,"componentType":5125,"type":"SCALAR"},{"bufferView":12,"byteOffset":0,"count":404,"componentType":5126,"type":"VEC3","min":[0.045163627713918686,0.034811075776815414,4.4691842049360275E-7],"max":[0.057396914809942245,0.0542730912566185,0.0042250435799360275]},{"bufferView":13,"byteOffset":0,"count":2412,"componentType":5125,"type":"SCALAR"},{"bufferView":14,"byteOffset":0,"count":1214,"componentType":5126,"type":"VEC3","min":[-0.057163450866937637,0.01192103698849678,3.9453152567148209E-7],"max":[-0.04001462459564209,0.031939122825860977,0.0042424756102263927]},{"bufferView":15,"byteOffset":0,"count":7278,"componentType":5125,"type":"SCALAR"},{"bufferView":16,"byteOffset":0,"count":455,"componentType":5126,"type":"VEC3","min":[-0.035074513405561447,0.013629771769046783,4.1973544284701347E-7],"max":[-0.018427714705467224,0.03309023380279541,0.0042266370728611946]},{"bufferView":17,"byteOffset":0,"count":2718,"componentType":5125,"type":"SCALAR"},{"bufferView":18,"byteOffset":0,"count":546,"componentType":5126,"type":"VEC3","min":[0.0031546123791486025,0.012576360255479813,5.4907269486648147E-7],"max":[0.016817755997180939,0.03220362588763237,0.004217193927615881]},{"bufferView":19,"byteOffset":0,"count":3264,"componentType":5125,"type":"SCALAR"},{"bufferView":20,"byteOffset":0,"count":474,"componentType":5126,"type":"VEC3","min":[0.026369145140051842,0.013628304004669189,5.7800190234047477E-7],"max":[0.041125360876321793,0.033090345561504364,0.0042267828248441219]},{"bufferView":21,"byteOffset":0,"count":2832,"componentType":5125,"type":"SCALAR"},{"bufferView":22,"byteOffset":0,"count":296,"componentType":5126,"type":"VEC3","min":[0.045319247990846634,0.013629712164402008,6.2742037698626518E-7],"max":[0.05755254253745079,0.033090151846408844,0.00422524381428957]},{"bufferView":23,"byteOffset":0,"count":1764,"componentType":5125,"type":"SCALAR"},{"bufferView":24,"byteOffset":0,"count":512,"componentType":5126,"type":"VEC3","min":[-0.059000279754400253,-0.0080184489488601685,5.411564529822499E-7],"max":[-0.038980603218078613,0.011445195414125919,0.0042251776903867722]},{"bufferView":25,"byteOffset":0,"count":3060,"componentType":5125,"type":"SCALAR"},{"bufferView":26,"byteOffset":0,"count":406,"componentType":5126,"type":"VEC3","min":[-0.035273980349302292,-0.0080167651176452637,6.0239091226321761E-7],"max":[-0.018226820975542068,0.011445277370512486,0.0042268205434083939]},{"bufferView":27,"byteOffset":0,"count":2424,"componentType":5125,"type":"SCALAR"},{"bufferView":28,"byteOffset":0,"count":972,"componentType":5126,"type":"VEC3","min":[-0.016510829329490662,-0.0082748495042324066,6.6868960857391357E-7],"max":[0.0031561404466629028,0.011701911687850952,0.004226860124617815]},{"bufferView":29,"byteOffset":0,"count":5832,"componentType":5125,"type":"SCALAR"},{"bufferView":30,"byteOffset":0,"count":591,"componentType":5126,"type":"VEC3","min":[0.0048259347677230835,-0.0080167911946773529,7.0559326559305191E-7],"max":[0.019285032525658607,0.011445242911577225,0.0042253024876117706]},{"bufferView":31,"byteOffset":0,"count":3546,"componentType":5125,"type":"SCALAR"},{"bufferView":32,"byteOffset":0,"count":1157,"componentType":5126,"type":"VEC3","min":[0.021493718028068542,-0.012601879425346851,7.5943535193800926E-7],"max":[0.042897187173366547,0.01257798820734024,0.0042254272848367691]},{"bufferView":33,"byteOffset":0,"count":6942,"componentType":5125,"type":"SCALAR"},{"bufferView":34,"byteOffset":0,"count":728,"componentType":5126,"type":"VEC3","min":[0.043872136622667313,-0.0080164559185504913,8.0780591815710068E-7],"max":[0.059000100940465927,0.011445578187704086,0.0042270179837942123]},{"bufferView":35,"byteOffset":0,"count":4368,"componentType":5125,"type":"SCALAR"},{"bufferView":36,"byteOffset":0,"count":2021,"componentType":5126,"type":"VEC3","min":[-0.055949486792087555,-0.03345818817615509,7.8056473284959793E-7],"max":[-0.039881020784378052,-0.014032711274921894,0.0042269714176654816]},{"bufferView":37,"byteOffset":0,"count":12210,"componentType":5125,"type":"SCALAR"},{"bufferView":38,"byteOffset":0,"count":329,"componentType":5126,"type":"VEC3","min":[-0.035326868295669556,-0.033477254211902618,8.1711914390325546E-7],"max":[-0.020869359374046326,-0.014013629406690598,0.0042254268191754818]},{"bufferView":39,"byteOffset":0,"count":1962,"componentType":5125,"type":"SCALAR"},{"bufferView":40,"byteOffset":0,"count":692,"componentType":5126,"type":"VEC3","min":[-0.014755938202142715,-0.033475592732429504,8.7037915363907814E-7],"max":[0.0010901239002123475,-0.014015141874551773,0.0042254840955138206]},{"bufferView":41,"byteOffset":0,"count":4146,"componentType":5125,"type":"SCALAR"},{"bufferView":42,"byteOffset":0,"count":328,"componentType":5126,"type":"VEC3","min":[0.0067524686455726624,-0.033477138727903366,9.2567643150687218E-7],"max":[0.02457968145608902,-0.014013518579304218,0.0042255399748682976]},{"bufferView":43,"byteOffset":0,"count":1956,"componentType":5125,"type":"SCALAR"},{"bufferView":44,"byteOffset":0,"count":480,"componentType":5126,"type":"VEC3","min":[-0.027249809354543686,-0.054500319063663483,1.0158980785490712E-6],"max":[-0.010390115901827812,-0.035039857029914856,0.0042256410233676434]},{"bufferView":45,"byteOffset":0,"count":2868,"componentType":5125,"type":"SCALAR"},{"bufferView":46,"byteOffset":0,"count":357,"componentType":5126,"type":"VEC3","min":[-0.0079708993434906,-0.054501932114362717,1.0653162689777673E-6],"max":[0.0090953083708882332,-0.0350382998585701,0.004225678276270628]},{"bufferView":47,"byteOffset":0,"count":2130,"componentType":5125,"type":"SCALAR"},{"bufferView":48,"byteOffset":0,"count":405,"componentType":5126,"type":"VEC3","min":[0.011399231851100922,-0.054501954466104507,1.1160151416333974E-6],"max":[0.02585834264755249,-0.035038329660892487,0.004225738812237978]},{"bufferView":49,"byteOffset":0,"count":2418,"componentType":5125,"type":"SCALAR"},{"bufferView":50,"byteOffset":0,"count":492,"componentType":5126,"type":"VEC3","min":[0.0282521340996027,-0.033475931733846664,-1.0564690455794334E-7],"max":[0.055341664701700211,-0.014013882726430893,0.0042261229828000069]},{"bufferView":51,"byteOffset":0,"count":2940,"componentType":5125,"type":"SCALAR"}],"bufferViews":[{"buffer":0,"byteOffset":0,"byteLength":5160,"byteStride":12,"target":34962},{"buffer":0,"byteOffset":5160,"byteLength":10272,"target":34963},{"buffer":0,"byteOffset":15432,"byteLength":4872,"byteStride":12,"target":34962},{"buffer":0,"byteOffset":20304,"byteLength":9744,"target":34963},{"buffer":0,"byteOffset":30048,"byteLength":17028,"byteStride":12,"target":34962},{"buffer":0,"byteOffset":47076,"byteLength":34104,"target":34963},{"buffer":0,"byteOffset":81180,"byteLength":18156,"byteStride":12,"target":34962},{"buffer":0,"byteOffset":99336,"byteLength":36312,"target":34963},{"buffer":0,"byteOffset":135648,"byteLength":11448,"byteStride":12,"target":34962},{"buffer":0,"byteOffset":147096,"byteLength":22896,"target":34963},{"buffer":0,"byteOffset":169992,"byteLength":5544,"byteStride":12,"target":34962},{"buffer":0,"byteOffset":175536,"byteLength":11040,"target":34963},{"buffer":0,"byteOffset":186576,"byteLength":4848,"byteStride":12,"target":34962},{"buffer":0,"byteOffset":191424,"byteLength":9648,"target":34963},{"buffer":0,"byteOffset":201072,"byteLength":14568,"byteStride":12,"target":34962},{"buffer":0,"byteOffset":215640,"byteLength":29112,"target":34963},{"buffer":0,"byteOffset":244752,"byteLength":5460,"byteStride":12,"target":34962},{"buffer":0,"byteOffset":250212,"byteLength":10872,"target":34963},{"buffer":0,"byteOffset":261084,"byteLength":6552,"byteStride":12,"target":34962},{"buffer":0,"byteOffset":267636,"byteLength":13056,"target":34963},{"buffer":0,"byteOffset":280692,"byteLength":5688,"byteStride":12,"target":34962},{"buffer":0,"byteOffset":286380,"byteLength":11328,"target":34963},{"buffer":0,"byteOffset":297708,"byteLength":3552,"byteStride":12,"target":34962},{"buffer":0,"byteOffset":301260,"byteLength":7056,"target":34963},{"buffer":0,"byteOffset":308316,"byteLength":6144,"byteStride":12,"target":34962},{"buffer":0,"byteOffset":314460,"byteLength":12240,"target":34963},{"buffer":0,"byteOffset":326700,"byteLength":4872,"byteStride":12,"target":34962},{"buffer":0,"byteOffset":331572,"byteLength":9696,"target":34963},{"buffer":0,"byteOffset":341268,"byteLength":11664,"byteStride":12,"target":34962},{"buffer":0,"byteOffset":352932,"byteLength":23328,"target":34963},{"buffer":0,"byteOffset":376260,"byteLength":7092,"byteStride":12,"target":34962},{"buffer":0,"byteOffset":383352,"byteLength":14184,"target":34963},{"buffer":0,"byteOffset":397536,"byteLength":13884,"byteStride":12,"target":34962},{"buffer":0,"byteOffset":411420,"byteLength":27768,"target":34963},{"buffer":0,"byteOffset":439188,"byteLength":8736,"byteStride":12,"target":34962},{"buffer":0,"byteOffset":447924,"byteLength":17472,"target":34963},{"buffer":0,"byteOffset":465396,"byteLength":24252,"byteStride":12,"target":34962},{"buffer":0,"byteOffset":489648,"byteLength":48840,"target":34963},{"buffer":0,"byteOffset":538488,"byteLength":3948,"byteStride":12,"target":34962},{"buffer":0,"byteOffset":542436,"byteLength":7848,"target":34963},{"buffer":0,"byteOffset":550284,"byteLength":8304,"byteStride":12,"target":34962},{"buffer":0,"byteOffset":558588,"byteLength":16584,"target":34963},{"buffer":0,"byteOffset":575172,"byteLength":3936,"byteStride":12,"target":34962},{"buffer":0,"byteOffset":579108,"byteLength":7824,"target":34963},{"buffer":0,"byteOffset":586932,"byteLength":5760,"byteStride":12,"target":34962},{"buffer":0,"byteOffset":592692,"byteLength":11472,"target":34963},{"buffer":0,"byteOffset":604164,"byteLength":4284,"byteStride":12,"target":34962},{"buffer":0,"byteOffset":608448,"byteLength":8520,"target":34963},{"buffer":0,"byteOffset":616968,"byteLength":4860,"byteStride":12,"target":34962},{"buffer":0,"byteOffset":621828,"byteLength":9672,"target":34963},{"buffer":0,"byteOffset":631500,"byteLength":5904,"byteStride":12,"target":34962},{"buffer":0,"byteOffset":637404,"byteLength":11760,"target":34963}],"buffers":[{"byteLength":649164,"uri":"ABCDEFGHIJKLMNOPQRSTUVWXYZ.bin"}]}