{"asset":{"generator":"3D Builder","version":"2.0"},"scene":0,"scenes":[{"nodes":[0]}],"nodes":[{"mesh":0,"matrix":[1,0,0,0,0,-1.1920928955078125E-7,-0.99999988079071045,0,0,0.99999988079071045,-1.1920928955078125E-7,0,9.3865395456305123E-8,1.0564688324166127E-7,-4.2390833954186746E-8,1]}],"meshes":[{"primitives":[{"attributes":{"POSITION":0},"mode":4,"indices":1,"material":0}]}],"materials":[{"name":"Dark red_1_0","pbrMetallicRoughness":{"baseColorFactor":[0.24620139598846436,0,0.0074990317225456238,1],"metallicFactor":0,"roughnessFactor":0.498039186000824},"alphaMode":"OPAQUE"}],"accessors":[{"bufferView":0,"byteOffset":0,"count":1419,"componentType":5126,"type":"VEC3","min":[-0.035429313778877258,0.034811008721590042,2.3987377062439919E-7],"max":[-0.02076687291264534,0.05427304282784462,0.004224852193146944]},{"bufferView":1,"byteOffset":0,"count":8526,"componentType":5125,"type":"SCALAR"}],"bufferViews":[{"buffer":0,"byteOffset":0,"byteLength":17028,"byteStride":12,"target":34962},{"buffer":0,"byteOffset":17028,"byteLength":34104,"target":34963}],"buffers":[{"byteLength":51132,"uri":"B.bin"}]}