{"asset":{"generator":"3D Builder","version":"2.0"},"scene":0,"scenes":[{"nodes":[0,1,2,3,4]}],"nodes":[{"mesh":0,"matrix":[1,0,0,0,0,-1.1920928955078125E-7,-0.99999988079071045,0,0,0.99999988079071045,-1.1920928955078125E-7,0,-3.6334991904141134E-8,3.9239838045546094E-9,-4.3904776703129755E-8,1]},{"mesh":1,"matrix":[1,0,0,0,0,-1.1920928955078125E-7,-0.99999988079071045,0,0,0.99999988079071045,-1.1920928955078125E-7,0,-3.6334991904141134E-8,3.9239838045546094E-9,-4.3904776703129755E-8,1]},{"mesh":2,"matrix":[1,0,0,0,0,-1.1920928955078125E-7,-0.99999988079071045,0,0,0.99999988079071045,-1.1920928955078125E-7,0,-3.6334991904141134E-8,3.9239838045546094E-9,-4.3904776703129755E-8,1]},{"mesh":3,"matrix":[1,0,0,0,0,-1.1920928955078125E-7,-0.99999988079071045,0,0,0.99999988079071045,-1.1920928955078125E-7,0,-3.6334991904141134E-8,3.9239838045546094E-9,-4.3904776703129755E-8,1]},{"mesh":4,"matrix":[1,0,0,0,0,-1.1920928955078125E-7,-0.99999988079071045,0,0,0.99999988079071045,-1.1920928955078125E-7,0,-3.6334991904141134E-8,3.9239838045546094E-9,-4.3904776703129755E-8,1]}],"meshes":[{"primitives":[{"attributes":{"POSITION":0},"mode":4,"indices":1,"material":0}]},{"primitives":[{"attributes":{"POSITION":2},"mode":4,"indices":3,"material":1}]},{"primitives":[{"attributes":{"POSITION":4},"mode":4,"indices":5,"material":2}]},{"primitives":[{"attributes":{"POSITION":6},"mode":4,"indices":7,"material":3}]},{"primitives":[{"attributes":{"POSITION":8},"mode":4,"indices":9,"material":4}]}],"materials":[{"name":"Green_1_0","pbrMetallicRoughness":{"baseColorFactor":[0.015208514407277107,0.49693304300308228,0.072271861135959625,1],"metallicFactor":0,"roughnessFactor":0.498039186000824},"alphaMode":"OPAQUE"},{"name":"Orange_1_1","pbrMetallicRoughness":{"baseColorFactor":[1,0.21223072707653046,0.018500218167901039,1],"metallicFactor":0,"roughnessFactor":0.498039186000824},"alphaMode":"OPAQUE"},{"name":"Turquoise_1_2","pbrMetallicRoughness":{"baseColorFactor":[0,0.3515326976776123,0.80695235729217529,1],"metallicFactor":0,"roughnessFactor":0.498039186000824},"alphaMode":"OPAQUE"},{"name":"White_1_3","pbrMetallicRoughness":{"baseColorFactor":[1,1,1,1],"metallicFactor":0,"roughnessFactor":0.498039186000824},"alphaMode":"OPAQUE"},{"name":"Yellow_1_4","pbrMetallicRoughness":{"baseColorFactor":[0.99110221862792969,0.87962234020233154,0,1],"metallicFactor":0,"roughnessFactor":0.498039186000824},"alphaMode":"OPAQUE"}],"accessors":[{"bufferView":0,"byteOffset":0,"count":142,"componentType":5126,"type":"VEC3","min":[-0.015127390623092651,-0.0049786120653152466,3.8251792844334886E-9],"max":[0.0203082412481308,0.048316914588212967,0.017569994553923607]},{"bufferView":1,"byteOffset":0,"count":840,"componentType":5125,"type":"SCALAR"},{"bufferView":2,"byteOffset":0,"count":140,"componentType":5126,"type":"VEC3","min":[-0.058879725635051727,-0.0231914259493351,5.688161053285512E-10],"max":[-0.02344600111246109,0.030106030404567719,0.017569990828633308]},{"bufferView":3,"byteOffset":0,"count":828,"componentType":5125,"type":"SCALAR"},{"bufferView":4,"byteOffset":0,"count":320,"componentType":5126,"type":"VEC3","min":[-0.036901503801345825,-0.026676427572965622,-5.4692250728294312E-11],"max":[-0.001467779278755188,0.0087572932243347168,0.017571892589330673]},{"bufferView":5,"byteOffset":0,"count":1920,"componentType":5125,"type":"SCALAR"},{"bufferView":6,"byteOffset":0,"count":138,"componentType":5126,"type":"VEC3","min":[-0.058999896049499512,-0.048317015171051025,-3.9239895777143374E-9],"max":[0.012155577540397644,-0.03074321523308754,0.017571887001395226]},{"bufferView":7,"byteOffset":0,"count":816,"componentType":5125,"type":"SCALAR"},{"bufferView":8,"byteOffset":0,"count":142,"componentType":5126,"type":"VEC3","min":[0.0057025104761123657,-0.026962552219629288,-1.0551381990353548E-10],"max":[0.058999959379434586,0.0084730759263038635,0.01756998710334301]},{"bufferView":9,"byteOffset":0,"count":840,"componentType":5125,"type":"SCALAR"}],"bufferViews":[{"buffer":0,"byteOffset":0,"byteLength":1704,"byteStride":12,"target":34962},{"buffer":0,"byteOffset":1704,"byteLength":3360,"target":34963},{"buffer":0,"byteOffset":5064,"byteLength":1680,"byteStride":12,"target":34962},{"buffer":0,"byteOffset":6744,"byteLength":3312,"target":34963},{"buffer":0,"byteOffset":10056,"byteLength":3840,"byteStride":12,"target":34962},{"buffer":0,"byteOffset":13896,"byteLength":7680,"target":34963},{"buffer":0,"byteOffset":21576,"byteLength":1656,"byteStride":12,"target":34962},{"buffer":0,"byteOffset":23232,"byteLength":3264,"target":34963},{"buffer":0,"byteOffset":26496,"byteLength":1704,"byteStride":12,"target":34962},{"buffer":0,"byteOffset":28200,"byteLength":3360,"target":34963}],"buffers":[{"byteLength":31560,"uri":"BLOCKS.bin"}]}