{"asset":{"generator":"3D Builder","version":"2.0"},"scene":0,"scenes":[{"nodes":[0]}],"nodes":[{"mesh":0,"matrix":[0.787401020526886,0,0,0,0,-9.38655162485702E-8,-0.78740090131759644,0,0,0.78740090131759644,-4.1066122946631367E-8,0,0.066309243440628052,6.92055976969641E-8,-0.073422931134700775,1]}],"meshes":[{"primitives":[{"attributes":{"POSITION":0},"mode":4,"indices":1,"material":0}]}],"materials":[{"name":"Orange","pbrMetallicRoughness":{"baseColorFactor":[1,0.21223078668117523,0.018500218167901039,1],"metallicFactor":0,"roughnessFactor":1},"alphaMode":"OPAQUE"}],"accessors":[{"bufferView":0,"byteOffset":0,"count":97,"componentType":5126,"type":"VEC3","min":[-0.10961297899484634,-0.118647001683712,-9.90071029605133E-8],"max":[-0.058812599629163742,-0.067847400903701782,0.0507998988032341]},{"bufferView":1,"byteOffset":0,"count":570,"componentType":5125,"type":"SCALAR"}],"bufferViews":[{"buffer":0,"byteOffset":0,"byteLength":1164,"byteStride":12,"target":34962},{"buffer":0,"byteOffset":1164,"byteLength":2280,"target":34963}],"buffers":[{"byteLength":3444,"uri":"CONE.bin"}]}