{"asset":{"generator":"3D Builder","version":"2.0"},"scene":0,"scenes":[{"nodes":[0]}],"nodes":[{"mesh":0,"matrix":[0.99999994039535522,0,0,0,0,-1.1920928244535389E-7,-0.99999982118606567,0,0,0.99999982118606567,-1.1920928244535389E-7,0,-0.00096699601272121072,-2.840396140513235E-9,0.0024651896674185991,1]}],"meshes":[{"primitives":[{"attributes":{"POSITION":0},"mode":4,"indices":1,"material":0}]}],"materials":[{"name":"Green","pbrMetallicRoughness":{"baseColorFactor":[0.015208514407277107,0.49693304300308228,0.072271861135959625,1],"metallicFactor":0,"roughnessFactor":0.49803900718688965},"alphaMode":"OPAQUE"}],"accessors":[{"bufferView":0,"byteOffset":0,"count":142,"componentType":5126,"type":"VEC3","min":[-0.011464000679552555,-0.0099658099934458733,3.1342701767300696E-9],"max":[0.013398000039160252,0.014896200969815254,0.024860002100467682]},{"bufferView":1,"byteOffset":0,"count":840,"componentType":5125,"type":"SCALAR"}],"bufferViews":[{"buffer":0,"byteOffset":0,"byteLength":1704,"byteStride":12,"target":34962},{"buffer":0,"byteOffset":1704,"byteLength":3360,"target":34963}],"buffers":[{"byteLength":5064,"uri":"CUBEDICE.bin"}]}