{"asset":{"generator":"3D Builder","version":"2.0"},"scene":0,"scenes":[{"nodes":[0]}],"nodes":[{"mesh":0,"matrix":[0.57284998893737793,0,0,0,0,-6.8288919408132642E-8,-0.572848916053772,0,0,0.572848916053772,-8.9970718875065359E-8,0,-0.0066849295981228352,0.025728471577167511,-0.046106778085231781,1]}],"meshes":[{"primitives":[{"attributes":{"POSITION":0},"mode":4,"indices":1,"material":0}]}],"materials":[{"name":"Turquoise","pbrMetallicRoughness":{"baseColorFactor":[0,0.3515326976776123,0.80695247650146484,1],"metallicFactor":0,"roughnessFactor":1},"alphaMode":"OPAQUE"}],"accessors":[{"bufferView":0,"byteOffset":0,"count":240,"componentType":5126,"type":"VEC3","min":[-0.023243602365255356,-0.11540000885725021,-0.044913202524185181],"max":[0.046582803130149841,-0.045573603361845016,0.024913201108574867]},{"bufferView":1,"byteOffset":0,"count":1428,"componentType":5125,"type":"SCALAR"}],"bufferViews":[{"buffer":0,"byteOffset":0,"byteLength":2880,"byteStride":12,"target":34962},{"buffer":0,"byteOffset":2880,"byteLength":5712,"target":34963}],"buffers":[{"byteLength":8592,"uri":"CYLINDER.bin"}]}