{"asset":{"generator":"3D Builder","version":"2.0"},"scene":0,"scenes":[{"nodes":[0]}],"nodes":[{"mesh":0,"matrix":[1,0,0,0,0,-1.1920928955078125E-7,-0.99999988079071045,0,0,0.99999988079071045,-1.1920928955078125E-7,0,9.3865395456305123E-8,1.0564688324166127E-7,-4.2390833954186746E-8,1]}],"meshes":[{"primitives":[{"attributes":{"POSITION":0},"mode":4,"indices":1,"material":0}]}],"materials":[{"name":"Dark red_1_0","pbrMetallicRoughness":{"baseColorFactor":[0.24620139598846436,0,0.0074990317225456238,1],"metallicFactor":0,"roughnessFactor":0.498039186000824},"alphaMode":"OPAQUE"}],"accessors":[{"bufferView":0,"byteOffset":0,"count":954,"componentType":5126,"type":"VEC3","min":[0.0046845660544931889,0.034812599420547485,3.4255208447575569E-7],"max":[0.022484783083200455,0.054273057729005814,0.0042249551042914391]},{"bufferView":1,"byteOffset":0,"count":5724,"componentType":5125,"type":"SCALAR"}],"bufferViews":[{"buffer":0,"byteOffset":0,"byteLength":11448,"byteStride":12,"target":34962},{"buffer":0,"byteOffset":11448,"byteLength":22896,"target":34963}],"buffers":[{"byteLength":34344,"uri":"D.bin"}]}