{"asset":{"generator":"3D Builder","version":"2.0"},"scene":0,"scenes":[{"nodes":[0]}],"nodes":[{"mesh":0,"matrix":[1,0,0,0,0,-1.1920928955078125E-7,-0.99999988079071045,0,0,0.99999988079071045,-1.1920928955078125E-7,0,2.2709368607820579E-8,-2.91436186706899E-14,-6.055830947815366E-9,1]}],"meshes":[{"primitives":[{"attributes":{"POSITION":0,"COLOR_0":1},"mode":4,"indices":2}]}],"accessors":[{"bufferView":0,"byteOffset":0,"count":48,"componentType":5126,"type":"VEC3","min":[-0.026180449873209,-0.027527695521712303,2.8421709430404007E-14],"max":[0.02618040144443512,0.027527682483196259,0.044541019946336746]},{"bufferView":1,"byteOffset":0,"count":48,"componentType":5121,"type":"VEC4","normalized":true},{"bufferView":2,"byteOffset":0,"count":282,"componentType":5125,"type":"SCALAR"}],"bufferViews":[{"buffer":0,"byteOffset":0,"byteLength":576,"byteStride":12,"target":34962},{"buffer":0,"byteOffset":576,"byteLength":192,"byteStride":4,"target":34962},{"buffer":0,"byteOffset":768,"byteLength":1128,"target":34963}],"buffers":[{"byteLength":1896,"uri":"DODECAHEDRON.bin"}]}