{"asset":{"generator":"3D Builder","version":"2.0"},"scene":0,"scenes":[{"nodes":[0]}],"nodes":[{"mesh":0,"matrix":[0.99999994039535522,0,0,0,0,-1.1920928244535389E-7,-0.99999982118606567,0,0,0.99999982118606567,-1.1920928244535389E-7,0,0,1.5988121049304027E-7,-1.9059327209460138E-14,1]}],"meshes":[{"primitives":[{"attributes":{"POSITION":0,"COLOR_0":1},"mode":4,"indices":2}]}],"accessors":[{"bufferView":0,"byteOffset":0,"count":48,"componentType":5126,"type":"VEC3","min":[-0.026180451735854149,-0.027527704834938049,-1.5988122470389499E-7],"max":[0.026180408895015717,0.027527691796422005,0.044540885835886]},{"bufferView":1,"byteOffset":0,"count":48,"componentType":5121,"type":"VEC4","normalized":true},{"bufferView":2,"byteOffset":0,"count":282,"componentType":5125,"type":"SCALAR"}],"bufferViews":[{"buffer":0,"byteOffset":0,"byteLength":576,"byteStride":12,"target":34962},{"buffer":0,"byteOffset":576,"byteLength":192,"byteStride":4,"target":34962},{"buffer":0,"byteOffset":768,"byteLength":1128,"target":34963}],"buffers":[{"byteLength":1896,"uri":"Dodecahedron.bin"}]}