{"asset":{"generator":"3D Builder","version":"2.0"},"scene":0,"scenes":[{"nodes":[0]}],"nodes":[{"mesh":0,"matrix":[0.039370074868202209,0,0,0,0,-4.6932786545994531E-9,-0.039370071142911911,0,0,0.039370071142911911,-4.6932786545994531E-9,0,0,1.4061404272069922E-6,-1.6762501488850473E-13,1]}],"meshes":[{"primitives":[{"attributes":{"POSITION":0,"COLOR_0":1},"mode":4,"indices":2}]}],"accessors":[{"bufferView":0,"byteOffset":0,"count":2287,"componentType":5126,"type":"VEC3","min":[-1.0196481943130493,-0.43805783987045288,-3.5715969715965912E-5],"max":[1.0506042242050171,0.87339502573013306,0.025364283472299576]},{"bufferView":1,"byteOffset":0,"count":2287,"componentType":5121,"type":"VEC4","normalized":true},{"bufferView":2,"byteOffset":0,"count":13908,"componentType":5125,"type":"SCALAR"}],"bufferViews":[{"buffer":0,"byteOffset":0,"byteLength":27444,"byteStride":12,"target":34962},{"buffer":0,"byteOffset":27444,"byteLength":9148,"byteStride":4,"target":34962},{"buffer":0,"byteOffset":36592,"byteLength":55632,"target":34963}],"buffers":[{"byteLength":92224,"uri":"golden_ratio.bin"}]}