{"asset":{"generator":"3D Builder","version":"2.0"},"scene":0,"scenes":[{"nodes":[0]}],"nodes":[{"mesh":0,"matrix":[1,0,0,0,0,-1.1920928955078125E-7,-0.99999988079071045,0,0,0.99999988079071045,-1.1920928955078125E-7,0,9.3865395456305123E-8,1.0564688324166127E-7,-4.2390833954186746E-8,1]}],"meshes":[{"primitives":[{"attributes":{"POSITION":0},"mode":4,"indices":1,"material":0}]}],"materials":[{"name":"Turquoise_1_1","pbrMetallicRoughness":{"baseColorFactor":[0,0.3515326976776123,0.80695235729217529,1],"metallicFactor":0,"roughnessFactor":0.498039186000824},"alphaMode":"OPAQUE"}],"accessors":[{"bufferView":0,"byteOffset":0,"count":455,"componentType":5126,"type":"VEC3","min":[-0.035074513405561447,0.013629771769046783,4.1973544284701347E-7],"max":[-0.018427714705467224,0.03309023380279541,0.0042266370728611946]},{"bufferView":1,"byteOffset":0,"count":2718,"componentType":5125,"type":"SCALAR"}],"bufferViews":[{"buffer":0,"byteOffset":0,"byteLength":5460,"byteStride":12,"target":34962},{"buffer":0,"byteOffset":5460,"byteLength":10872,"target":34963}],"buffers":[{"byteLength":16332,"uri":"H.bin"}]}