{"asset":{"generator":"3D Builder","version":"2.0"},"scene":0,"scenes":[{"nodes":[0]}],"nodes":[{"mesh":0,"matrix":[1,0,0,0,0,-1.1920928955078125E-7,-0.99999988079071045,0,0,0.99999988079071045,-1.1920928955078125E-7,0,9.3865395456305123E-8,1.0564688324166127E-7,-4.2390833954186746E-8,1]}],"meshes":[{"primitives":[{"attributes":{"POSITION":0},"mode":4,"indices":1,"material":0}]}],"materials":[{"name":"Turquoise_1_1","pbrMetallicRoughness":{"baseColorFactor":[0,0.3515326976776123,0.80695235729217529,1],"metallicFactor":0,"roughnessFactor":0.498039186000824},"alphaMode":"OPAQUE"}],"accessors":[{"bufferView":0,"byteOffset":0,"count":430,"componentType":5126,"type":"VEC3","min":[-0.010390237905085087,0.012658984400331974,4.9168005489264033E-7],"max":[-0.0029644668102264404,0.032121017575263977,0.0042250943370163441]},{"bufferView":1,"byteOffset":0,"count":2568,"componentType":5125,"type":"SCALAR"}],"bufferViews":[{"buffer":0,"byteOffset":0,"byteLength":5160,"byteStride":12,"target":34962},{"buffer":0,"byteOffset":5160,"byteLength":10272,"target":34963}],"buffers":[{"byteLength":15432,"uri":"I.bin"}]}