{"asset":{"generator":"3D Builder","version":"2.0"},"scene":0,"scenes":[{"nodes":[0]}],"nodes":[{"mesh":0,"matrix":[0.99999994039535522,0,0,0,0,-1.1920928244535389E-7,-0.99999982118606567,0,0,0.99999982118606567,-1.1920928244535389E-7,0,0,0.029999997466802597,-3.5762788286319847E-9,1]}],"meshes":[{"primitives":[{"attributes":{"POSITION":0,"COLOR_0":1},"mode":4,"indices":2}]}],"accessors":[{"bufferView":0,"byteOffset":0,"count":12,"componentType":5126,"type":"VEC3","min":[-0.05618034303188324,-0.011458980850875378,-0.030000001192092896],"max":[0.0038196602836251259,0.048541020601987839,0.030000001192092896]},{"bufferView":1,"byteOffset":0,"count":12,"componentType":5121,"type":"VEC4","normalized":true},{"bufferView":2,"byteOffset":0,"count":60,"componentType":5125,"type":"SCALAR"}],"bufferViews":[{"buffer":0,"byteOffset":0,"byteLength":144,"byteStride":12,"target":34962},{"buffer":0,"byteOffset":144,"byteLength":48,"byteStride":4,"target":34962},{"buffer":0,"byteOffset":192,"byteLength":240,"target":34963}],"buffers":[{"byteLength":432,"uri":"Icosahedron.bin"}]}