{"asset":{"generator":"3D Builder","version":"2.0"},"scene":0,"scenes":[{"nodes":[0]}],"nodes":[{"mesh":0,"matrix":[1,0,0,0,0,-1.1920928955078125E-7,-0.99999988079071045,0,0,0.99999988079071045,-1.1920928955078125E-7,0,9.3865395456305123E-8,1.0564688324166127E-7,-4.2390833954186746E-8,1]}],"meshes":[{"primitives":[{"attributes":{"POSITION":0},"mode":4,"indices":1,"material":0}]}],"materials":[{"name":"Green_1_2","pbrMetallicRoughness":{"baseColorFactor":[0.015208514407277107,0.49693304300308228,0.072271861135959625,1],"metallicFactor":0,"roughnessFactor":0.498039186000824},"alphaMode":"OPAQUE"}],"accessors":[{"bufferView":0,"byteOffset":0,"count":512,"componentType":5126,"type":"VEC3","min":[-0.059000279754400253,-0.0080184489488601685,5.411564529822499E-7],"max":[-0.038980603218078613,0.011445195414125919,0.0042251776903867722]},{"bufferView":1,"byteOffset":0,"count":3060,"componentType":5125,"type":"SCALAR"}],"bufferViews":[{"buffer":0,"byteOffset":0,"byteLength":6144,"byteStride":12,"target":34962},{"buffer":0,"byteOffset":6144,"byteLength":12240,"target":34963}],"buffers":[{"byteLength":18384,"uri":"M.bin"}]}