{"asset":{"generator":"3D Builder","version":"2.0"},"scene":0,"scenes":[{"nodes":[0]}],"nodes":[{"mesh":0,"matrix":[1,0,0,0,0,-1.1920928955078125E-7,-0.99999988079071045,0,0,0.99999988079071045,-1.1920928955078125E-7,0,9.3865395456305123E-8,1.0564688324166127E-7,-4.2390833954186746E-8,1]}],"meshes":[{"primitives":[{"attributes":{"POSITION":0},"mode":4,"indices":1,"material":0}]}],"materials":[{"name":"Green_1_2","pbrMetallicRoughness":{"baseColorFactor":[0.015208514407277107,0.49693304300308228,0.072271861135959625,1],"metallicFactor":0,"roughnessFactor":0.498039186000824},"alphaMode":"OPAQUE"}],"accessors":[{"bufferView":0,"byteOffset":0,"count":972,"componentType":5126,"type":"VEC3","min":[-0.016510829329490662,-0.0082748495042324066,6.6868960857391357E-7],"max":[0.0031561404466629028,0.011701911687850952,0.004226860124617815]},{"bufferView":1,"byteOffset":0,"count":5832,"componentType":5125,"type":"SCALAR"}],"bufferViews":[{"buffer":0,"byteOffset":0,"byteLength":11664,"byteStride":12,"target":34962},{"buffer":0,"byteOffset":11664,"byteLength":23328,"target":34963}],"buffers":[{"byteLength":34992,"uri":"O.bin"}]}