{"asset":{"generator":"3D Builder","version":"2.0"},"scene":0,"scenes":[{"nodes":[0]}],"nodes":[{"mesh":0,"matrix":[1,0,0,0,0,-1.1920928955078125E-7,-0.99999988079071045,0,0,0.99999988079071045,-1.1920928955078125E-7,0,-0.02500000037252903,-4.4703485357899808E-9,0.024999989196658134,1]}],"meshes":[{"primitives":[{"attributes":{"POSITION":0,"COLOR_0":1},"mode":4,"indices":2}]}],"accessors":[{"bufferView":0,"byteOffset":0,"count":26,"componentType":5126,"type":"VEC3","min":[0,0,7.4505805969238281E-9],"max":[0.049999989569187164,0.049999982118606567,0.070709988474845886]},{"bufferView":1,"byteOffset":0,"count":26,"componentType":5121,"type":"VEC4","normalized":true},{"bufferView":2,"byteOffset":0,"count":144,"componentType":5125,"type":"SCALAR"}],"bufferViews":[{"buffer":0,"byteOffset":0,"byteLength":312,"byteStride":12,"target":34962},{"buffer":0,"byteOffset":312,"byteLength":104,"byteStride":4,"target":34962},{"buffer":0,"byteOffset":416,"byteLength":576,"target":34963}],"buffers":[{"byteLength":992,"uri":"OCTAHEDRON.bin"}]}