{"asset":{"generator":"3D Builder","version":"2.0"},"scene":0,"scenes":[{"nodes":[0]}],"nodes":[{"mesh":0,"matrix":[0.99999994039535522,0,0,0,0,-1.1920928244535389E-7,-0.99999982118606567,0,0,0.99999982118606567,-1.1920928244535389E-7,0,0,0,0,1]}],"meshes":[{"primitives":[{"attributes":{"POSITION":0,"COLOR_0":1},"mode":4,"indices":2}]}],"accessors":[{"bufferView":0,"byteOffset":0,"count":216,"componentType":5126,"type":"VEC3","min":[3.000535252795089E-5,0,0],"max":[0.038069993257522583,0.050800003111362457,0.0031750001944601536]},{"bufferView":1,"byteOffset":0,"count":216,"componentType":5121,"type":"VEC4","normalized":true},{"bufferView":2,"byteOffset":0,"count":1308,"componentType":5125,"type":"SCALAR"}],"bufferViews":[{"buffer":0,"byteOffset":0,"byteLength":2592,"byteStride":12,"target":34962},{"buffer":0,"byteOffset":2592,"byteLength":864,"byteStride":4,"target":34962},{"buffer":0,"byteOffset":3456,"byteLength":5232,"target":34963}],"buffers":[{"byteLength":8688,"uri":"PHI.bin"}]}