{"asset":{"generator":"3D Builder","version":"2.0"},"scene":0,"scenes":[{"nodes":[0]}],"nodes":[{"mesh":0,"matrix":[1,0,0,0,0,-1.1920928955078125E-7,-0.99999988079071045,0,0,0.99999988079071045,-1.1920928955078125E-7,0,9.3865395456305123E-8,1.0564688324166127E-7,-4.2390833954186746E-8,1]}],"meshes":[{"primitives":[{"attributes":{"POSITION":0},"mode":4,"indices":1,"material":0}]}],"materials":[{"name":"Green_1_2","pbrMetallicRoughness":{"baseColorFactor":[0.015208514407277107,0.49693304300308228,0.072271861135959625,1],"metallicFactor":0,"roughnessFactor":0.498039186000824},"alphaMode":"OPAQUE"}],"accessors":[{"bufferView":0,"byteOffset":0,"count":1157,"componentType":5126,"type":"VEC3","min":[0.021493718028068542,-0.012601879425346851,7.5943535193800926E-7],"max":[0.042897187173366547,0.01257798820734024,0.0042254272848367691]},{"bufferView":1,"byteOffset":0,"count":6942,"componentType":5125,"type":"SCALAR"}],"bufferViews":[{"buffer":0,"byteOffset":0,"byteLength":13884,"byteStride":12,"target":34962},{"buffer":0,"byteOffset":13884,"byteLength":27768,"target":34963}],"buffers":[{"byteLength":41652,"uri":"Q.bin"}]}