{"asset":{"generator":"3D Builder","version":"2.0"},"scene":0,"scenes":[{"nodes":[0]}],"nodes":[{"mesh":0,"matrix":[1,0,0,0,0,-1.1920928955078125E-7,-0.99999988079071045,0,0,0.99999988079071045,-1.1920928955078125E-7,0,9.3865395456305123E-8,1.0564688324166127E-7,-4.2390833954186746E-8,1]}],"meshes":[{"primitives":[{"attributes":{"POSITION":0},"mode":4,"indices":1,"material":0}]}],"materials":[{"name":"Green_1_2","pbrMetallicRoughness":{"baseColorFactor":[0.015208514407277107,0.49693304300308228,0.072271861135959625,1],"metallicFactor":0,"roughnessFactor":0.498039186000824},"alphaMode":"OPAQUE"}],"accessors":[{"bufferView":0,"byteOffset":0,"count":728,"componentType":5126,"type":"VEC3","min":[0.043872136622667313,-0.0080164559185504913,8.0780591815710068E-7],"max":[0.059000100940465927,0.011445578187704086,0.0042270179837942123]},{"bufferView":1,"byteOffset":0,"count":4368,"componentType":5125,"type":"SCALAR"}],"bufferViews":[{"buffer":0,"byteOffset":0,"byteLength":8736,"byteStride":12,"target":34962},{"buffer":0,"byteOffset":8736,"byteLength":17472,"target":34963}],"buffers":[{"byteLength":26208,"uri":"R.bin"}]}