{"asset":{"generator":"3D Builder","version":"2.0"},"scene":0,"scenes":[{"nodes":[0]}],"nodes":[{"mesh":0,"matrix":[1,0,0,0,0,-1.1920928955078125E-7,-0.99999988079071045,0,0,0.99999988079071045,-1.1920928955078125E-7,0,9.3865395456305123E-8,1.0564688324166127E-7,-4.2390833954186746E-8,1]}],"meshes":[{"primitives":[{"attributes":{"POSITION":0},"mode":4,"indices":1,"material":0}]}],"materials":[{"name":"Orange_1_3","pbrMetallicRoughness":{"baseColorFactor":[1,0.21223072707653046,0.018500218167901039,1],"metallicFactor":0,"roughnessFactor":0.498039186000824},"alphaMode":"OPAQUE"}],"accessors":[{"bufferView":0,"byteOffset":0,"count":2021,"componentType":5126,"type":"VEC3","min":[-0.055949486792087555,-0.03345818817615509,7.8056473284959793E-7],"max":[-0.039881020784378052,-0.014032711274921894,0.0042269714176654816]},{"bufferView":1,"byteOffset":0,"count":12210,"componentType":5125,"type":"SCALAR"}],"bufferViews":[{"buffer":0,"byteOffset":0,"byteLength":24252,"byteStride":12,"target":34962},{"buffer":0,"byteOffset":24252,"byteLength":48840,"target":34963}],"buffers":[{"byteLength":73092,"uri":"S.bin"}]}