{"asset":{"generator":"3D Builder","version":"2.0"},"scene":0,"scenes":[{"nodes":[0]}],"nodes":[{"mesh":0,"matrix":[1,0,0,0,0,-1.1920928955078125E-7,-0.99999988079071045,0,0,0.99999988079071045,-1.1920928955078125E-7,0,9.3865395456305123E-8,1.0564688324166127E-7,-4.2390833954186746E-8,1]}],"meshes":[{"primitives":[{"attributes":{"POSITION":0},"mode":4,"indices":1,"material":0}]}],"materials":[{"name":"Orange_1_3","pbrMetallicRoughness":{"baseColorFactor":[1,0.21223072707653046,0.018500218167901039,1],"metallicFactor":0,"roughnessFactor":0.498039186000824},"alphaMode":"OPAQUE"}],"accessors":[{"bufferView":0,"byteOffset":0,"count":329,"componentType":5126,"type":"VEC3","min":[-0.035326868295669556,-0.033477254211902618,8.1711914390325546E-7],"max":[-0.020869359374046326,-0.014013629406690598,0.0042254268191754818]},{"bufferView":1,"byteOffset":0,"count":1962,"componentType":5125,"type":"SCALAR"}],"bufferViews":[{"buffer":0,"byteOffset":0,"byteLength":3948,"byteStride":12,"target":34962},{"buffer":0,"byteOffset":3948,"byteLength":7848,"target":34963}],"buffers":[{"byteLength":11796,"uri":"T.bin"}]}