{"asset":{"generator":"3D Builder","version":"2.0"},"scene":0,"scenes":[{"nodes":[0]}],"nodes":[{"mesh":0,"matrix":[1.4285600185394287,-1.1141880349896383E-5,0.00013520898937713355,0,0.00013378501171246171,6.5106205511256121E-6,-1.4285598993301392,0,1.399810025759507E-5,1.4285699129104614,5.0468916015233845E-6,0,-0.0071416418068110943,2.2283809641976404E-7,1.3522598010240472E-6,1]}],"meshes":[{"primitives":[{"attributes":{"POSITION":0},"mode":4,"indices":1,"material":0}]}],"materials":[{"name":"Turquoise","pbrMetallicRoughness":{"baseColorFactor":[0,0.3515326976776123,0.80695247650146484,1],"metallicFactor":0,"roughnessFactor":1},"alphaMode":"OPAQUE"}],"accessors":[{"bufferView":0,"byteOffset":0,"count":4,"componentType":5126,"type":"VEC3","min":[-0.010000000707805157,-0.017320500686764717,0],"max":[0.020000001415610313,0.017320500686764717,0.028000000864267349]},{"bufferView":1,"byteOffset":0,"count":12,"componentType":5125,"type":"SCALAR"}],"bufferViews":[{"buffer":0,"byteOffset":0,"byteLength":48,"byteStride":12,"target":34962},{"buffer":0,"byteOffset":48,"byteLength":48,"target":34963}],"buffers":[{"byteLength":96,"uri":"TETRAHEDRON.bin"}]}