{"asset":{"generator":"3D Builder","version":"2.0"},"scene":0,"scenes":[{"nodes":[0]}],"nodes":[{"mesh":0,"matrix":[0.99999994039535522,0,0,0,0,-1.1920928244535389E-7,-0.99999982118606567,0,0,0.99999982118606567,-1.1920928244535389E-7,0,0,0,0,1]}],"meshes":[{"primitives":[{"attributes":{"POSITION":0,"COLOR_0":1},"mode":4,"indices":2}]}],"accessors":[{"bufferView":0,"byteOffset":0,"count":4,"componentType":5126,"type":"VEC3","min":[0,0,0],"max":[0.05000000074505806,0.043301273137331009,0.040824875235557556]},{"bufferView":1,"byteOffset":0,"count":4,"componentType":5121,"type":"VEC4","normalized":true},{"bufferView":2,"byteOffset":0,"count":12,"componentType":5125,"type":"SCALAR"}],"bufferViews":[{"buffer":0,"byteOffset":0,"byteLength":48,"byteStride":12,"target":34962},{"buffer":0,"byteOffset":48,"byteLength":16,"byteStride":4,"target":34962},{"buffer":0,"byteOffset":64,"byteLength":48,"target":34963}],"buffers":[{"byteLength":112,"uri":"Tetrahedron.bin"}]}