{"asset":{"generator":"3D Builder","version":"2.0"},"scene":0,"scenes":[{"nodes":[0]}],"nodes":[{"mesh":0,"matrix":[1,0,0,0,0,-1.1920928955078125E-7,-0.99999988079071045,0,0,0.99999988079071045,-1.1920928955078125E-7,0,9.3865395456305123E-8,1.0564688324166127E-7,-4.2390833954186746E-8,1]}],"meshes":[{"primitives":[{"attributes":{"POSITION":0},"mode":4,"indices":1,"material":0}]}],"materials":[{"name":"Orange_1_3","pbrMetallicRoughness":{"baseColorFactor":[1,0.21223072707653046,0.018500218167901039,1],"metallicFactor":0,"roughnessFactor":0.498039186000824},"alphaMode":"OPAQUE"}],"accessors":[{"bufferView":0,"byteOffset":0,"count":692,"componentType":5126,"type":"VEC3","min":[-0.014755938202142715,-0.033475592732429504,8.7037915363907814E-7],"max":[0.0010901239002123475,-0.014015141874551773,0.0042254840955138206]},{"bufferView":1,"byteOffset":0,"count":4146,"componentType":5125,"type":"SCALAR"}],"bufferViews":[{"buffer":0,"byteOffset":0,"byteLength":8304,"byteStride":12,"target":34962},{"buffer":0,"byteOffset":8304,"byteLength":16584,"target":34963}],"buffers":[{"byteLength":24888,"uri":"U.bin"}]}