{"asset":{"generator":"3D Builder","version":"2.0"},"scene":0,"scenes":[{"nodes":[0]}],"nodes":[{"mesh":0,"matrix":[1,0,0,0,0,-1.1920928955078125E-7,-0.99999988079071045,0,0,0.99999988079071045,-1.1920928955078125E-7,0,9.3865395456305123E-8,1.0564688324166127E-7,-4.2390833954186746E-8,1]}],"meshes":[{"primitives":[{"attributes":{"POSITION":0},"mode":4,"indices":1,"material":0}]}],"materials":[{"name":"Orange_1_3","pbrMetallicRoughness":{"baseColorFactor":[1,0.21223072707653046,0.018500218167901039,1],"metallicFactor":0,"roughnessFactor":0.498039186000824},"alphaMode":"OPAQUE"}],"accessors":[{"bufferView":0,"byteOffset":0,"count":328,"componentType":5126,"type":"VEC3","min":[0.0067524686455726624,-0.033477138727903366,9.2567643150687218E-7],"max":[0.02457968145608902,-0.014013518579304218,0.0042255399748682976]},{"bufferView":1,"byteOffset":0,"count":1956,"componentType":5125,"type":"SCALAR"}],"bufferViews":[{"buffer":0,"byteOffset":0,"byteLength":3936,"byteStride":12,"target":34962},{"buffer":0,"byteOffset":3936,"byteLength":7824,"target":34963}],"buffers":[{"byteLength":11760,"uri":"V.bin"}]}