{"asset":{"generator":"3D Builder","version":"2.0"},"scene":0,"scenes":[{"nodes":[0]}],"nodes":[{"mesh":0,"matrix":[1,0,0,0,0,-1.1920928955078125E-7,-0.99999988079071045,0,0,0.99999988079071045,-1.1920928955078125E-7,0,9.3865395456305123E-8,1.0564688324166127E-7,-4.2390833954186746E-8,1]}],"meshes":[{"primitives":[{"attributes":{"POSITION":0},"mode":4,"indices":1,"material":0}]}],"materials":[{"name":"Dark red_1_0","pbrMetallicRoughness":{"baseColorFactor":[0.24620139598846436,0,0.0074990317225456238,1],"metallicFactor":0,"roughnessFactor":0.498039186000824},"alphaMode":"OPAQUE"}],"accessors":[{"bufferView":0,"byteOffset":0,"count":357,"componentType":5126,"type":"VEC3","min":[-0.0079708993434906,-0.054501932114362717,1.0653162689777673E-6],"max":[0.0090953083708882332,-0.0350382998585701,0.004225678276270628]},{"bufferView":1,"byteOffset":0,"count":2130,"componentType":5125,"type":"SCALAR"}],"bufferViews":[{"buffer":0,"byteOffset":0,"byteLength":4284,"byteStride":12,"target":34962},{"buffer":0,"byteOffset":4284,"byteLength":8520,"target":34963}],"buffers":[{"byteLength":12804,"uri":"Y.bin"}]}